<svg width="105" height="104" viewBox="0 0 105 104" fill="none" xmlns="http://www.w3.org/2000/svg">
<g clip-path="url(#clip0_429_125573)">
<path d="M48.2953 67.2953C47.0359 68.575 44.9641 68.575 43.7047 67.2953L30.7047 54.2953C29.425 53.0359 29.425 50.9641 30.7047 49.7047C31.9641 48.425 34.0359 48.425 35.2953 49.7047L46 60.4094L69.7047 36.7047C70.9641 35.425 73.0359 35.425 74.2953 36.7047C75.575 37.9641 75.575 40.0359 74.2953 41.2953L48.2953 67.2953ZM104.5 52C104.5 80.7219 81.2219 104 52.5 104C23.7781 104 0.5 80.7219 0.5 52C0.5 23.2781 23.7781 0 52.5 0C81.2219 0 104.5 23.2781 104.5 52ZM52.5 6.5C27.3734 6.5 7 26.8734 7 52C7 77.1266 27.3734 97.5 52.5 97.5C77.6266 97.5 98 77.1266 98 52C98 26.8734 77.6266 6.5 52.5 6.5Z" fill="#00AF12"/>
</g>
<defs>
<clipPath id="clip0_429_125573">
<rect width="104" height="104" fill="white" transform="translate(0.5)"/>
</clipPath>
</defs>
</svg>
