<svg width="20" height="20" viewBox="0 0 20 20" fill="none" xmlns="http://www.w3.org/2000/svg">
<path fill-rule="evenodd" clip-rule="evenodd" d="M1.05721 1.05727C1.57791 0.536573 2.42213 0.536573 2.94283 1.05727L10 8.11446L17.0572 1.05727C17.5779 0.536573 18.4221 0.536573 18.9428 1.05727C19.4635 1.57797 19.4635 2.42219 18.9428 2.94289L11.8856 10.0001L18.9428 17.0573C19.4635 17.578 19.4635 18.4222 18.9428 18.9429C18.4221 19.4636 17.5779 19.4636 17.0572 18.9429L10 11.8857L2.94283 18.9429C2.42213 19.4636 1.57791 19.4636 1.05721 18.9429C0.536512 18.4222 0.536512 17.578 1.05721 17.0573L8.1144 10.0001L1.05721 2.94289C0.536512 2.42219 0.536512 1.57797 1.05721 1.05727Z" fill="#777E91"/>
</svg>
