<svg width="112" height="49" viewBox="0 0 112 49" fill="none" xmlns="http://www.w3.org/2000/svg">
<g clip-path="url(#clip0_331_130996)">
<path d="M6.78409 43.393C4.2557 43.393 2.60349 42.4167 1.65221 41.5906C0.575771 40.6394 0.125168 39.6881 0.100134 39.588L0 39.1624V32.5285L0.150201 32.2782C0.150201 32.2782 0.375503 31.9027 0.600805 31.377C0.876173 30.701 1.02637 30.0752 1.02637 29.5745C1.02637 29.0739 1.07644 27.7972 1.12651 26.0448C1.25168 20.7127 1.42691 11.7757 1.85248 8.89685C2.65355 3.3394 3.9553 0.861084 6.00805 0.861084H65.1372C70.6196 1.13645 75.0255 3.58974 78.2298 5.71759C80.0823 6.94423 82.861 9.47262 85.8149 12.1762C88.9691 15.0551 92.1985 18.009 94.2512 19.2858C95.8784 19.8115 109.171 24.1673 109.822 27.1213C110.673 30.2004 110.723 30.7261 110.648 33.7551C111.524 34.381 112.025 35.3573 112.025 36.4087L111.975 40.0636C111.975 41.6157 110.873 42.8924 109.321 43.1677L108.846 43.2428C107.869 43.368 105.141 43.4431 103.489 43.4431H100.209V41.3153H103.489C105.541 41.3153 107.869 41.2402 108.545 41.14L108.946 41.09C109.447 40.9898 109.822 40.5643 109.822 40.0636L109.872 36.4087C109.872 35.9581 109.622 35.5826 109.221 35.4074L108.545 35.132L108.495 34.381C108.595 30.9013 108.595 30.701 107.769 27.697C106.993 26.2951 96.8797 22.2647 93.5253 21.3385L93.2499 21.2133C91.0469 19.8866 87.6674 16.7824 84.388 13.8034C81.6343 11.3001 78.7805 8.69658 77.0782 7.57007C72.5722 4.61611 68.9924 3.2643 65.0872 3.06403H6.00805C6.00805 3.06403 4.80644 3.3394 3.9553 9.29738C3.55476 12.0511 3.35449 21.2634 3.25436 26.195C3.20429 27.9474 3.17926 29.2741 3.15422 29.7247C3.15422 30.4507 2.95396 31.3269 2.55342 32.2782C2.40322 32.6537 2.22798 32.9791 2.12785 33.1794V38.9871C2.25302 39.2124 2.55342 39.638 3.05409 40.0636C4.08046 40.9648 5.40724 41.3904 7.03442 41.3403H15.5208V43.4681H7.05945C7.05945 43.4681 6.88422 43.4681 6.78409 43.4681V43.393ZM87.2418 43.393H29.0389V41.2652H87.2418V43.393Z" fill="white"/>
<path fill-rule="evenodd" clip-rule="evenodd" d="M79.3313 11.0247C80.9835 12.4516 82.6357 14.0538 84.0376 15.3305C85.4645 16.6322 87.1167 18.2093 88.819 19.6363C88.3183 19.6613 87.8427 19.8616 87.4421 20.2371C86.591 21.0632 86.2155 23.3162 86.1905 24.4928C86.1905 24.8933 86.2656 25.2688 86.4658 25.5942H84.5633C80.1073 25.5942 71.646 22.1396 71.646 22.1396V10.499H77.9544C78.4801 10.499 78.9308 10.6743 79.3563 11.0247H79.3313Z" fill="white"/>
<path fill-rule="evenodd" clip-rule="evenodd" d="M88.1933 20.988C87.5925 21.5888 87.2921 23.7166 87.2671 24.5177C87.2671 24.8181 87.3422 25.0684 87.5675 25.2687C87.7678 25.469 88.0181 25.5941 88.3185 25.5941H90.6717C93.2 25.5941 90.2461 21.0631 89.2948 20.7376C88.9193 20.6125 88.5188 20.6876 88.2184 20.9629L88.1933 20.988Z" fill="white"/>
<path d="M75.3006 25.5691H70.394V26.996H75.3006V25.5691Z" fill="white"/>
<path d="M40.9047 25.2688H12.3164V26.6957H40.9047V25.2688Z" fill="white"/>
<path fill-rule="evenodd" clip-rule="evenodd" d="M109.597 31.6523C107.168 30.3505 102.637 27.8472 101.986 27.1963C101.711 26.9209 101.661 24.8932 101.711 23.1409C105.216 24.6178 108.545 26.2951 108.77 27.3215C109.371 29.4493 109.547 30.2754 109.572 31.6272L109.597 31.6523Z" fill="white"/>
<path fill-rule="evenodd" clip-rule="evenodd" d="M2.10303 29.5745C4.03061 29.1489 6.03329 27.747 6.10839 26.1949V13.4529H2.57866C2.35336 17.8838 2.25323 24.0421 2.17813 27.3715C2.3033 27.722 2.35336 27.9723 2.35336 28.1726C2.35336 28.6482 2.25323 29.1239 2.12806 29.5745H2.10303Z" fill="white"/>
<path fill-rule="evenodd" clip-rule="evenodd" d="M101.211 43.3931C100.86 44.6698 100.159 45.8213 99.258 46.7476C97.8811 48.1244 95.9535 49.0006 93.8507 49.0006C91.7479 49.0006 89.8203 48.1494 88.4184 46.7476C87.4922 45.8213 86.8163 44.6698 86.4658 43.3931H84.7886V41.0399C84.7886 38.5616 85.815 36.2835 87.4421 34.6313C89.0943 32.9791 91.3474 31.9778 93.8507 31.9778C96.329 31.9778 98.6071 33.0042 100.234 34.6313C101.886 36.2835 102.888 38.5366 102.888 41.0149V43.368H101.211V43.3931ZM93.8257 36.634C91.2472 36.634 89.1444 38.7368 89.1444 41.3153C89.1444 43.8937 91.2472 45.9966 93.8257 45.9966C96.4041 45.9966 98.5069 43.8937 98.5069 41.3153C98.5069 38.7368 96.4041 36.634 93.8257 36.634Z" fill="white"/>
<path fill-rule="evenodd" clip-rule="evenodd" d="M22.4049 31.9777C24.8832 31.9777 27.1613 33.004 28.7885 34.6312C30.4407 36.2834 31.442 38.5365 31.442 41.0148V43.3679H29.7648C29.4143 44.6446 28.7134 45.7962 27.8122 46.7224C26.4353 48.0993 24.5077 48.9754 22.4049 48.9754C20.3021 48.9754 18.3745 48.1243 16.9726 46.7224C16.0464 45.7962 15.3705 44.6446 15.02 43.3679H13.3428V41.0148C13.3428 38.5365 14.3691 36.2584 15.9963 34.6062C17.6235 32.954 19.9016 31.9526 22.4049 31.9526V31.9777ZM22.4049 36.6339C19.8265 36.6339 17.7236 38.7367 17.7236 41.3152C17.7236 43.8936 19.8265 45.9964 22.4049 45.9964C24.9834 45.9964 27.0862 43.8936 27.0862 41.3152C27.0862 38.7367 24.9834 36.6339 22.4049 36.6339Z" fill="white"/>
<path fill-rule="evenodd" clip-rule="evenodd" d="M93.8257 39.3877C92.7492 39.3877 91.873 40.2639 91.873 41.3403C91.873 42.4168 92.7492 43.2929 93.8257 43.2929C94.9021 43.2929 95.7783 42.4168 95.7783 41.3403C95.7783 40.2639 94.9021 39.3877 93.8257 39.3877V39.3877Z" fill="white"/>
<path fill-rule="evenodd" clip-rule="evenodd" d="M22.4048 39.3877C21.3283 39.3877 20.4521 40.2639 20.4521 41.3403C20.4521 42.4168 21.3283 43.2929 22.4048 43.2929C23.4812 43.2929 24.3574 42.4168 24.3574 41.3403C24.3574 40.2639 23.4812 39.3877 22.4048 39.3877V39.3877Z" fill="white"/>
</g>
<defs>
<clipPath id="clip0_331_130996">
<rect width="112" height="48.1395" fill="white" transform="translate(0 0.861084)"/>
</clipPath>
</defs>
</svg>
