<svg width="112" height="49" viewBox="0 0 112 49" fill="none" xmlns="http://www.w3.org/2000/svg">
<g clip-path="url(#clip0_295_126036)">
<path d="M6.78409 43.3934C4.2557 43.3934 2.60349 42.4171 1.65221 41.591C0.575771 40.6397 0.125168 39.6884 0.100134 39.5883L0 39.1627V32.5289L0.150201 32.2785C0.150201 32.2785 0.375503 31.903 0.600805 31.3773C0.876173 30.7014 1.02637 30.0756 1.02637 29.5749C1.02637 29.0742 1.07644 27.7975 1.12651 26.0452C1.25168 20.713 1.42691 11.7761 1.85248 8.89721C2.65355 3.33977 3.9553 0.86145 6.00805 0.86145H65.1372C70.6196 1.13682 75.0255 3.5901 78.2298 5.71795C80.0823 6.9446 82.861 9.47298 85.8149 12.1766C88.9691 15.0555 92.1985 18.0094 94.2512 19.2861C95.8784 19.8118 109.171 24.1677 109.822 27.1216C110.673 30.2007 110.723 30.7264 110.648 33.7555C111.524 34.3813 112.025 35.3577 112.025 36.4091L111.975 40.064C111.975 41.616 110.873 42.8927 109.321 43.1681L108.846 43.2432C107.869 43.3684 105.141 43.4435 103.489 43.4435H100.209V41.3156H103.489C105.541 41.3156 107.869 41.2405 108.545 41.1404L108.946 41.0903C109.447 40.9902 109.822 40.5646 109.822 40.064L109.872 36.4091C109.872 35.9585 109.622 35.583 109.221 35.4077L108.545 35.1323L108.495 34.3813C108.595 30.9017 108.595 30.7014 107.769 27.6974C106.993 26.2955 96.8797 22.2651 93.5253 21.3389L93.2499 21.2137C91.0469 19.8869 87.6674 16.7828 84.388 13.8038C81.6343 11.3004 78.7805 8.69694 77.0782 7.57044C72.5722 4.61648 68.9924 3.26467 65.0872 3.0644H6.00805C6.00805 3.0644 4.80644 3.33977 3.9553 9.29775C3.55476 12.0514 3.35449 21.2638 3.25436 26.1954C3.20429 27.9477 3.17926 29.2745 3.15422 29.7251C3.15422 30.4511 2.95396 31.3273 2.55342 32.2785C2.40322 32.654 2.22798 32.9795 2.12785 33.1797V38.9875C2.25302 39.2128 2.55342 39.6384 3.05409 40.064C4.08046 40.9652 5.40724 41.3907 7.03442 41.3407H15.5208V43.4685H7.05945C7.05945 43.4685 6.88422 43.4685 6.78409 43.4685V43.3934ZM87.2418 43.3934H29.0389V41.2656H87.2418V43.3934Z" fill="#009DCF"/>
<path fill-rule="evenodd" clip-rule="evenodd" d="M79.3313 11.0251C80.9835 12.452 82.6357 14.0542 84.0376 15.3309C85.4645 16.6326 87.1167 18.2097 88.819 19.6366C88.3183 19.6617 87.8427 19.8619 87.4422 20.2374C86.591 21.0635 86.2155 23.3166 86.1905 24.4931C86.1905 24.8937 86.2656 25.2692 86.4658 25.5946H84.5633C80.1073 25.5946 71.646 22.14 71.646 22.14V10.4994H77.9544C78.4801 10.4994 78.9308 10.6746 79.3563 11.0251H79.3313Z" fill="#009DCF"/>
<path fill-rule="evenodd" clip-rule="evenodd" d="M88.1931 20.9885C87.5923 21.5893 87.2919 23.7171 87.2668 24.5182C87.2668 24.8186 87.3419 25.0689 87.5672 25.2692C87.7675 25.4695 88.0178 25.5946 88.3182 25.5946H90.6714C93.1998 25.5946 90.2458 21.0636 89.2946 20.7381C88.9191 20.6129 88.5185 20.688 88.2181 20.9634L88.1931 20.9885Z" fill="#009DCF"/>
<path d="M75.3009 25.5696H70.3943V26.9965H75.3009V25.5696Z" fill="#009DCF"/>
<path d="M40.9047 25.2692H12.3164V26.6961H40.9047V25.2692Z" fill="#009DCF"/>
<path fill-rule="evenodd" clip-rule="evenodd" d="M109.597 31.6526C107.169 30.3509 102.638 27.8475 101.987 27.1967C101.711 26.9213 101.661 24.8936 101.711 23.1412C105.216 24.6182 108.545 26.2955 108.771 27.3218C109.372 29.4497 109.547 30.2758 109.572 31.6276L109.597 31.6526Z" fill="#009DCF"/>
<path fill-rule="evenodd" clip-rule="evenodd" d="M2.10278 29.575C4.03036 29.1494 6.03305 27.7475 6.10815 26.1954V13.4534H2.57842C2.35312 17.8843 2.25298 24.0426 2.17788 27.372C2.30305 27.7225 2.35312 27.9728 2.35312 28.1731C2.35312 28.6487 2.25298 29.1244 2.12782 29.575H2.10278Z" fill="#009DCF"/>
<path fill-rule="evenodd" clip-rule="evenodd" d="M101.211 43.3934C100.86 44.6701 100.159 45.8217 99.258 46.7479C97.8811 48.1248 95.9535 49.0009 93.8507 49.0009C91.7479 49.0009 89.8203 48.1498 88.4184 46.7479C87.4922 45.8217 86.8163 44.6701 86.4658 43.3934H84.7886V41.0403C84.7886 38.562 85.815 36.2839 87.4421 34.6317C89.0943 32.9795 91.3474 31.9781 93.8507 31.9781C96.329 31.9781 98.6071 33.0045 100.234 34.6317C101.886 36.2839 102.888 38.5369 102.888 41.0153V43.3684H101.211V43.3934ZM93.8257 36.6344C91.2472 36.6344 89.1444 38.7372 89.1444 41.3157C89.1444 43.8941 91.2472 45.9969 93.8257 45.9969C96.4041 45.9969 98.5069 43.8941 98.5069 41.3157C98.5069 38.7372 96.4041 36.6344 93.8257 36.6344Z" fill="#009DCF"/>
<path fill-rule="evenodd" clip-rule="evenodd" d="M22.4049 31.9782C24.8832 31.9782 27.1613 33.0045 28.7885 34.6317C30.4407 36.2839 31.442 38.5369 31.442 41.0153V43.3684H29.7648C29.4143 44.6451 28.7134 45.7967 27.8122 46.7229C26.4353 48.0997 24.5077 48.9759 22.4049 48.9759C20.3021 48.9759 18.3745 48.1248 16.9726 46.7229C16.0464 45.7967 15.3705 44.6451 15.02 43.3684H13.3428V41.0153C13.3428 38.5369 14.3691 36.2589 15.9963 34.6067C17.6235 32.9545 19.9016 31.9531 22.4049 31.9531V31.9782ZM22.4049 36.6344C19.8265 36.6344 17.7236 38.7372 17.7236 41.3157C17.7236 43.8941 19.8265 45.9969 22.4049 45.9969C24.9834 45.9969 27.0862 43.8941 27.0862 41.3157C27.0862 38.7372 24.9834 36.6344 22.4049 36.6344Z" fill="#009DCF"/>
<path fill-rule="evenodd" clip-rule="evenodd" d="M93.8257 39.3881C92.7492 39.3881 91.873 40.2642 91.873 41.3407C91.873 42.4171 92.7492 43.2933 93.8257 43.2933C94.9021 43.2933 95.7783 42.4171 95.7783 41.3407C95.7783 40.2642 94.9021 39.3881 93.8257 39.3881Z" fill="#009DCF"/>
<path fill-rule="evenodd" clip-rule="evenodd" d="M22.405 39.3881C21.3286 39.3881 20.4524 40.2642 20.4524 41.3407C20.4524 42.4171 21.3286 43.2933 22.405 43.2933C23.4814 43.2933 24.3576 42.4171 24.3576 41.3407C24.3576 40.2642 23.4814 39.3881 22.405 39.3881Z" fill="#009DCF"/>
</g>
<defs>
<clipPath id="clip0_295_126036">
<rect width="112" height="48.1395" fill="white" transform="translate(0 0.86145)"/>
</clipPath>
</defs>
</svg>
