<svg width="92" height="33" viewBox="0 0 92 33" fill="none" xmlns="http://www.w3.org/2000/svg">
<g clip-path="url(#clip0_331_130716)">
<path fill-rule="evenodd" clip-rule="evenodd" d="M35.1353 4.0367C34.2091 4.08677 33.8085 4.93791 33.5332 5.83912L32.9324 7.7667C32.0562 10.5955 37.2381 10.6205 37.0879 8.2173L36.9377 5.63885C36.8877 4.68757 36.0616 3.98663 35.1353 4.0367V4.0367Z" fill="white"/>
<path d="M11.4037 28.6447C6.67236 28.6447 1.69068 25.4404 1.46538 25.2902L0.989746 24.9648V17.7551L1.13995 17.5048C1.39028 17.1043 2.01612 15.8275 2.01612 14.8262L2.29149 8.04212L15.4091 7.36622C21.0666 7.09085 24.6715 7.66662 28.4766 8.26742C30.6294 8.61789 32.8574 8.96836 35.5861 9.16863H56.8646C58.0912 9.16863 59.3429 8.99339 60.6446 8.81816C61.9714 8.64293 63.3483 8.44266 64.7251 8.44266C64.9254 8.44266 73.4117 9.39393 80.2459 11.1463C87.5807 13.0238 90.059 15.9527 90.3594 17.2545L90.9853 27.7435L90.0841 27.9438C88.3568 28.3443 86.9298 28.5946 83.1748 28.5946H79.2195V26.4668H83.1748C86.0787 26.4668 87.4305 26.3166 88.7323 26.0663L88.6822 25.4905L88.2566 17.5298C88.1064 17.2044 86.0787 14.8262 79.7202 13.199C73.0362 11.4967 64.7001 10.5705 64.5999 10.5455C63.4734 10.5455 62.2468 10.7207 60.92 10.8959C59.5932 11.0712 58.2164 11.2714 56.8395 11.2714H35.4609C32.5821 11.0461 30.304 10.6957 28.1011 10.3452C24.3961 9.76943 20.8914 9.19366 15.4591 9.46903L4.29417 10.0448L4.0939 14.8512C4.0939 16.2782 3.39296 17.7301 3.06753 18.3309V23.7882C4.39431 24.5642 8.1994 26.5419 11.604 26.4918H14.8333V28.6197H11.629C11.629 28.6197 11.4538 28.6197 11.3536 28.6197L11.4037 28.6447ZM68.0796 28.6447H26.0483V26.5169H68.0796V28.6447V28.6447Z" fill="white"/>
<path fill-rule="evenodd" clip-rule="evenodd" d="M3.16787 13.7997C3.11781 14.8511 3.09277 15.9526 3.09277 16.6035H4.44458C6.1719 16.6035 8.47498 15.3017 8.55008 13.7997V12.4229H3.11781V13.7997H3.16787Z" fill="white"/>
<path fill-rule="evenodd" clip-rule="evenodd" d="M82.2734 16.3281L84.3011 19.983C84.9771 19.6075 85.9534 19.3572 86.7044 19.3572H86.7544C87.8058 19.3572 88.8572 19.3572 89.9337 19.3572L89.8836 19.1819C89.8085 18.8315 88.7822 17.1042 87.7558 16.3281H82.2734V16.3281Z" fill="white"/>
<path fill-rule="evenodd" clip-rule="evenodd" d="M27.3752 28.6195C26.9997 29.4206 26.499 30.1216 25.8732 30.7474C24.4963 32.1242 22.5688 33.0004 20.4659 33.0004C18.3631 33.0004 16.4355 32.1493 15.0337 30.7474C14.4329 30.1466 13.9072 29.4206 13.5317 28.6195H11.4038V24.8395C11.4038 22.3612 12.4302 20.0831 14.0574 18.4309C15.6845 16.7787 17.9626 15.7773 20.4659 15.7773C22.9443 15.7773 25.2223 16.8037 26.8495 18.4309C28.5017 20.0831 29.503 22.3361 29.503 24.8144V28.5945H27.3752V28.6195ZM73.6372 19.9579C70.6832 19.9579 68.28 22.3612 68.28 25.3151C68.28 28.2691 70.6832 30.6723 73.6372 30.6723C76.5911 30.6723 78.9943 28.2691 78.9943 25.3151C78.9943 22.3612 76.5911 19.9579 73.6372 19.9579V19.9579ZM20.4409 19.9579C17.487 19.9579 15.0837 22.3612 15.0837 25.3151C15.0837 28.2691 17.487 30.6723 20.4409 30.6723C23.3949 30.6723 25.7981 28.2691 25.7981 25.3151C25.7981 22.3612 23.3949 19.9579 20.4409 19.9579V19.9579ZM73.6372 15.8024C76.1155 15.8024 78.3935 16.8288 80.0207 18.4559C81.6729 20.1081 82.6743 22.3612 82.6743 24.8395V28.6195H80.5464C80.1709 29.4206 79.6702 30.1216 79.0444 30.7474C77.6676 32.1242 75.74 33.0004 73.6121 33.0004C71.4843 33.0004 69.5817 32.1493 68.2049 30.7474C67.6041 30.1466 67.0784 29.4206 66.7029 28.6195H64.575V24.8395C64.575 22.3612 65.6014 20.0831 67.2286 18.4559C68.8808 16.8037 71.1338 15.8024 73.6121 15.8024H73.6372Z" fill="white"/>
<path fill-rule="evenodd" clip-rule="evenodd" d="M73.6621 23.3877C72.5856 23.3877 71.7095 24.2639 71.7095 25.3403C71.7095 26.4168 72.5856 27.2929 73.6621 27.2929C74.7385 27.2929 75.6147 26.4168 75.6147 25.3403C75.6147 24.2639 74.7385 23.3877 73.6621 23.3877Z" fill="white"/>
<path d="M39.0408 13.3743H34.1343V14.8012H39.0408V13.3743Z" fill="white"/>
<path fill-rule="evenodd" clip-rule="evenodd" d="M20.4658 23.3877C19.3894 23.3877 18.5132 24.2639 18.5132 25.3403C18.5132 26.4168 19.3894 27.2929 20.4658 27.2929C21.5422 27.2929 22.4184 26.4168 22.4184 25.3403C22.4184 24.2639 21.5422 23.3877 20.4658 23.3877Z" fill="white"/>
<path fill-rule="evenodd" clip-rule="evenodd" d="M32.4819 22.2109V24.0384H62.2969L32.4819 22.2109Z" fill="white"/>
<path d="M89.934 22.9871H87.5308V24.414H89.934V22.9871Z" fill="white"/>
<path d="M86.0787 22.5364H87.1301C87.5556 22.5364 87.8811 22.8868 87.8811 23.2874V24.1135C87.8811 24.5391 87.5306 24.8645 87.1301 24.8645H86.0787C85.6531 24.8645 85.3276 24.514 85.3276 24.1135V23.2874C85.3276 22.8618 85.6781 22.5364 86.0787 22.5364Z" fill="white"/>
<path fill-rule="evenodd" clip-rule="evenodd" d="M2.64209 24.7644V27.7684H10.4525V27.5431C7.19819 27.2427 3.94383 25.5404 2.64209 24.7894V24.7644Z" fill="white"/>
<path fill-rule="evenodd" clip-rule="evenodd" d="M21.1166 3.5361C20.1653 3.58617 19.7898 4.43731 19.5144 5.33851L18.9136 7.2661C18.8635 7.44133 18.8385 7.59153 18.8135 7.7167C20.2654 7.7918 21.6673 7.91697 23.0441 8.04214C23.0441 7.942 23.0692 7.81683 23.0441 7.69167L22.8939 5.11321C22.8439 4.16194 22.0178 3.461 21.0915 3.51107L21.1166 3.5361Z" fill="white"/>
<path fill-rule="evenodd" clip-rule="evenodd" d="M65.3009 8.61783C65.3009 8.61783 54.8869 2.25931 50.5561 0.932533C50.0304 0.782332 49.5047 0.632131 49.0041 0.506964C48.4533 0.381796 47.8775 0.256628 47.3018 0.156494L46.9263 2.23428C52.3335 3.61112 54.4614 6.99065 59.1677 9.81944C59.9187 10.27 63.4985 9.99467 64.2244 10.4202L65.3009 8.59279V8.61783Z" fill="white"/>
<path fill-rule="evenodd" clip-rule="evenodd" d="M55.0874 9.06839C54.4866 9.66919 54.1862 10.3701 54.1611 11.1962C54.1611 11.4966 54.2362 11.747 54.4615 11.9472C54.6618 12.1475 54.9121 12.2727 55.2125 12.2727H57.5657C57.9412 12.2727 58.2917 12.0724 58.4669 11.747C58.6672 11.4215 58.6421 11.021 58.4669 10.6956C58.0413 9.99463 57.3404 9.21859 56.2139 8.84309C55.8384 8.71792 55.4378 8.79302 55.1374 9.09342L55.0874 9.06839Z" fill="white"/>
<path d="M56.9896 13.3492C56.7643 13.3492 56.564 13.249 56.4138 13.0488L55.0871 11.2464C54.8618 10.9209 54.9369 10.4953 55.2373 10.245C55.5627 10.0197 55.9883 10.0948 56.2386 10.3952L57.5654 12.1976C57.7907 12.5231 57.7156 12.9486 57.4152 13.199C57.29 13.2991 57.1398 13.3241 56.9896 13.3241V13.3492Z" fill="white"/>
</g>
<defs>
<clipPath id="clip0_331_130716">
<rect width="90.0206" height="32.844" fill="white" transform="translate(0.989746 0.156494)"/>
</clipPath>
</defs>
</svg>
