<svg width="92" height="33" viewBox="0 0 92 33" fill="none" xmlns="http://www.w3.org/2000/svg">
<g clip-path="url(#clip0_295_125959)">
<path fill-rule="evenodd" clip-rule="evenodd" d="M35.1356 4.03719C34.2093 4.08726 33.8088 4.9384 33.5334 5.8396L32.9326 7.76719C32.0564 10.596 37.2384 10.621 37.0882 8.21779L36.938 5.63934C36.8879 4.68806 36.0618 3.98712 35.1356 4.03719Z" fill="#009DCF"/>
<path d="M11.4037 28.6451C6.67236 28.6451 1.69068 25.4408 1.46538 25.2906L0.989746 24.9652V17.7555L1.13995 17.5052C1.39028 17.1046 2.01612 15.8279 2.01612 14.8266L2.29149 8.04249L15.4091 7.36658C21.0666 7.09121 24.6715 7.66698 28.4766 8.26779C30.6294 8.61826 32.8574 8.96873 35.5861 9.169H56.8646C58.0912 9.169 59.3429 8.99376 60.6446 8.81853C61.9714 8.64329 63.3483 8.44302 64.7251 8.44302C64.9254 8.44302 73.4117 9.3943 80.2459 11.1466C87.5807 13.0242 90.059 15.9531 90.3594 17.2548L90.9853 27.7439L90.0841 27.9441C88.3568 28.3447 86.9298 28.595 83.1748 28.595H79.2195V26.4672H83.1748C86.0787 26.4672 87.4305 26.317 88.7323 26.0666L88.6822 25.4909L88.2566 17.5302C88.1064 17.2048 86.0787 14.8266 79.7202 13.1994C73.0362 11.4971 64.7001 10.5709 64.5999 10.5458C63.4734 10.5458 62.2468 10.7211 60.92 10.8963C59.5932 11.0715 58.2164 11.2718 56.8395 11.2718H35.4609C32.5821 11.0465 30.304 10.696 28.1011 10.3456C24.3961 9.7698 20.8914 9.19403 15.4591 9.4694L4.29417 10.0452L4.0939 14.8516C4.0939 16.2785 3.39296 17.7305 3.06753 18.3313V23.7886C4.39431 24.5646 8.1994 26.5423 11.604 26.4922H14.8333V28.62H11.629C11.629 28.62 11.4538 28.62 11.3536 28.62L11.4037 28.6451ZM68.0796 28.6451H26.0483V26.5172H68.0796V28.6451Z" fill="#009DCF"/>
<path fill-rule="evenodd" clip-rule="evenodd" d="M3.16763 13.8003C3.11756 14.8517 3.09253 15.9532 3.09253 16.6041H4.44434C6.17165 16.6041 8.47474 15.3023 8.54984 13.8003V12.4235H3.11756V13.8003H3.16763Z" fill="#009DCF"/>
<path fill-rule="evenodd" clip-rule="evenodd" d="M82.2737 16.3286L84.3014 19.9835C84.9773 19.608 85.9536 19.3577 86.7046 19.3577H86.7547C87.8061 19.3577 88.8575 19.3577 89.9339 19.3577L89.8839 19.1824C89.8088 18.832 88.7824 17.1047 87.756 16.3286H82.2737Z" fill="#009DCF"/>
<path fill-rule="evenodd" clip-rule="evenodd" d="M27.3752 28.6202C26.9997 29.4212 26.499 30.1222 25.8732 30.748C24.4963 32.1248 22.5688 33.001 20.4659 33.001C18.3631 33.001 16.4355 32.1499 15.0337 30.748C14.4329 30.1472 13.9072 29.4212 13.5317 28.6202H11.4038V24.8401C11.4038 22.3618 12.4302 20.0837 14.0574 18.4315C15.6845 16.7793 17.9626 15.778 20.4659 15.778C22.9443 15.778 25.2223 16.8043 26.8495 18.4315C28.5017 20.0837 29.503 22.3367 29.503 24.8151V28.5951H27.3752V28.6202ZM73.6372 19.9586C70.6832 19.9586 68.28 22.3618 68.28 25.3157C68.28 28.2697 70.6832 30.6729 73.6372 30.6729C76.5911 30.6729 78.9943 28.2697 78.9943 25.3157C78.9943 22.3618 76.5911 19.9586 73.6372 19.9586ZM20.4409 19.9586C17.487 19.9586 15.0837 22.3618 15.0837 25.3157C15.0837 28.2697 17.487 30.6729 20.4409 30.6729C23.3949 30.6729 25.7981 28.2697 25.7981 25.3157C25.7981 22.3618 23.3949 19.9586 20.4409 19.9586ZM73.6372 15.803C76.1155 15.803 78.3935 16.8294 80.0207 18.4565C81.6729 20.1088 82.6743 22.3618 82.6743 24.8401V28.6202H80.5464C80.1709 29.4212 79.6702 30.1222 79.0444 30.748C77.6676 32.1248 75.74 33.001 73.6121 33.001C71.4843 33.001 69.5817 32.1499 68.2049 30.748C67.6041 30.1472 67.0784 29.4212 66.7029 28.6202H64.575V24.8401C64.575 22.3618 65.6014 20.0837 67.2286 18.4565C68.8808 16.8043 71.1338 15.803 73.6121 15.803H73.6372Z" fill="#009DCF"/>
<path fill-rule="evenodd" clip-rule="evenodd" d="M73.6621 23.3881C72.5856 23.3881 71.7095 24.2642 71.7095 25.3407C71.7095 26.4171 72.5856 27.2933 73.6621 27.2933C74.7385 27.2933 75.6147 26.4171 75.6147 25.3407C75.6147 24.2642 74.7385 23.3881 73.6621 23.3881Z" fill="#009DCF"/>
<path d="M39.0406 13.3746H34.134V14.8015H39.0406V13.3746Z" fill="#009DCF"/>
<path fill-rule="evenodd" clip-rule="evenodd" d="M20.4658 23.3881C19.3894 23.3881 18.5132 24.2642 18.5132 25.3407C18.5132 26.4171 19.3894 27.2933 20.4658 27.2933C21.5422 27.2933 22.4184 26.4171 22.4184 25.3407C22.4184 24.2642 21.5422 23.3881 20.4658 23.3881Z" fill="#009DCF"/>
<path fill-rule="evenodd" clip-rule="evenodd" d="M32.4819 22.2115V24.039H62.2969L32.4819 22.2115Z" fill="#009DCF"/>
<path d="M89.934 22.9875H87.5308V24.4145H89.934V22.9875Z" fill="#009DCF"/>
<path d="M86.0787 22.537H87.1301C87.5556 22.537 87.8811 22.8875 87.8811 23.288V24.1141C87.8811 24.5397 87.5306 24.8651 87.1301 24.8651H86.0787C85.6531 24.8651 85.3276 24.5146 85.3276 24.1141V23.288C85.3276 22.8624 85.6781 22.537 86.0787 22.537Z" fill="#009DCF"/>
<path fill-rule="evenodd" clip-rule="evenodd" d="M2.64185 24.7649V27.7689H10.4523V27.5436C7.19795 27.2432 3.94359 25.5409 2.64185 24.7899V24.7649Z" fill="#009DCF"/>
<path fill-rule="evenodd" clip-rule="evenodd" d="M21.1168 3.53647C20.1655 3.58653 19.79 4.43767 19.5147 5.33888L18.9139 7.26646C18.8638 7.4417 18.8388 7.5919 18.8137 7.71707C20.2657 7.79217 21.6675 7.91733 23.0444 8.0425C23.0444 7.94237 23.0694 7.8172 23.0444 7.69203L22.8942 5.11358C22.8441 4.16231 22.018 3.46137 21.0918 3.51143L21.1168 3.53647Z" fill="#009DCF"/>
<path fill-rule="evenodd" clip-rule="evenodd" d="M65.3009 8.61831C65.3009 8.61831 54.8869 2.2598 50.5561 0.933022C50.0304 0.782821 49.5047 0.632619 49.0041 0.507452C48.4533 0.382284 47.8775 0.257117 47.3018 0.156982L46.9263 2.23477C52.3335 3.61161 54.4614 6.99114 59.1677 9.81992C59.9187 10.2705 63.4985 9.99516 64.2244 10.4207L65.3009 8.59328V8.61831Z" fill="#009DCF"/>
<path fill-rule="evenodd" clip-rule="evenodd" d="M55.0871 9.06888C54.4863 9.66968 54.1859 10.3706 54.1609 11.1967C54.1609 11.4971 54.236 11.7475 54.4613 11.9477C54.6616 12.148 54.9119 12.2732 55.2123 12.2732H57.5654C57.941 12.2732 58.2914 12.0729 58.4667 11.7475C58.6669 11.422 58.6419 11.0215 58.4667 10.6961C58.0411 9.99512 57.3401 9.21908 56.2136 8.84357C55.8381 8.71841 55.4376 8.79351 55.1372 9.09391L55.0871 9.06888Z" fill="#009DCF"/>
<path d="M56.9898 13.3497C56.7645 13.3497 56.5643 13.2495 56.4141 13.0493L55.0873 11.2468C54.862 10.9214 54.9371 10.4958 55.2375 10.2455C55.5629 10.0202 55.9885 10.0953 56.2388 10.3957L57.5656 12.1981C57.7909 12.5236 57.7158 12.9491 57.4154 13.1995C57.2903 13.2996 57.14 13.3246 56.9898 13.3246V13.3497Z" fill="#009DCF"/>
</g>
<defs>
<clipPath id="clip0_295_125959">
<rect width="90.0206" height="32.844" fill="white" transform="translate(0.989746 0.156982)"/>
</clipPath>
</defs>
</svg>
