<svg width="98" height="34" viewBox="0 0 98 34" fill="none" xmlns="http://www.w3.org/2000/svg">
<path fill-rule="evenodd" clip-rule="evenodd" d="M21.3631 11.4952C17.608 11.4952 15.6304 11.345 13.5776 10.594C23.1905 3.5846 22.039 3.8099 35.0564 3.8099C38.4109 3.8099 43.9433 3.8099 48.224 3.8099C50.8025 3.8099 53.406 4.18541 55.8843 4.93641C57.7868 5.51218 60.3403 6.78889 62.8686 8.16574C62.8186 8.2158 62.7685 8.26587 62.7185 8.29091H62.6934C61.9174 9.09198 61.4918 10.0433 61.4417 11.1197C61.4417 11.2449 61.4417 11.37 61.4417 11.4702H21.3631V11.4952Z" fill="white"/>
<path d="M11.1742 29.6197C6.44286 29.6197 1.46119 26.4154 1.23589 26.2652L0.760254 25.9398V18.7301L0.910455 18.4798C1.16079 18.0792 1.78663 16.8025 1.78663 15.7761L2.03696 10.7945L11.4746 4.33582L11.1742 2.23301L12.1505 2.03274C16.0557 1.20663 22.965 0.630859 28.923 0.630859H49.6758C52.4545 0.881195 54.8327 1.30676 56.7853 1.90757C60.7906 3.13421 69.8278 8.56649 71.3298 9.46769C72.7567 9.64293 80.3168 10.5441 86.5001 12.1463C93.8349 14.0238 96.3132 16.9527 96.6136 18.2545L97.2395 28.7435L96.3383 28.9438C94.6109 29.3443 93.184 29.6197 89.429 29.6197H85.699V27.4918H89.429C92.3329 27.4918 93.6847 27.3416 94.9864 27.0663L94.9364 26.4905L94.5108 18.5298C94.3856 18.2294 92.3329 15.8262 85.9744 14.199C79.2904 12.4968 70.9543 11.5705 70.8541 11.5455L70.4035 11.3953C70.4035 11.3953 60.1648 5.16193 56.1344 3.91025C54.307 3.35951 52.104 2.95898 49.5506 2.73368H28.8979C23.5408 2.73368 17.4326 3.20931 13.5274 3.91025L13.7276 5.31213L4.06468 11.946L3.86441 15.8262C3.86441 17.2281 3.16347 18.68 2.83804 19.3059V24.7632C4.16481 25.5392 7.94488 27.5169 11.3745 27.4668H17.8582V29.5946H11.3995C11.3995 29.5946 11.2243 29.5946 11.1241 29.5946L11.1742 29.6197ZM74.1085 29.6197H29.5488V27.4918H74.1085V29.6197Z" fill="white"/>
<path fill-rule="evenodd" clip-rule="evenodd" d="M2.16211 17.5785H3.51392C5.24123 17.5785 7.54432 16.2768 7.61942 14.7748V13.3979H2.18714C2.18714 14.8249 2.18714 16.1516 2.16211 17.5785V17.5785Z" fill="white"/>
<path fill-rule="evenodd" clip-rule="evenodd" d="M88.5278 17.3032L90.5555 20.9581C91.2314 20.5826 92.2078 20.3323 92.9588 20.3323H93.0088C94.0602 20.3323 95.1116 20.3323 96.1881 20.3323L96.138 20.157C96.0629 19.8066 95.0365 18.0793 94.0102 17.3032H88.5278V17.3032Z" fill="white"/>
<path d="M52.805 14.3491H47.8984V15.776H52.805V14.3491Z" fill="white"/>
<path d="M32.3773 14.3491H27.4707V15.776H32.3773V14.3491Z" fill="white"/>
<path fill-rule="evenodd" clip-rule="evenodd" d="M35.1812 23.186V25.0135H68.5759L35.1812 23.186Z" fill="white"/>
<path d="M96.1879 23.9619H93.7847V25.3888H96.1879V23.9619Z" fill="white"/>
<path d="M92.3579 23.5115H93.4093C93.8349 23.5115 94.1604 23.8619 94.1604 24.2625V25.0886C94.1604 25.5142 93.8099 25.8396 93.4093 25.8396H92.3579C91.9324 25.8396 91.6069 25.4891 91.6069 25.0886V24.2625C91.6069 23.8369 91.9574 23.5115 92.3579 23.5115Z" fill="white"/>
<path fill-rule="evenodd" clip-rule="evenodd" d="M63.4189 9.04202C62.8181 9.64283 62.5177 10.3438 62.4927 11.1699C62.4927 11.4703 62.5678 11.7206 62.7931 11.9209C62.9933 12.1211 63.2437 12.2463 63.5441 12.2463H65.8972C66.2727 12.2463 66.6232 12.046 66.7984 11.7206C66.9987 11.3952 66.9737 10.9946 66.7984 10.6692C66.3729 9.96826 65.6719 9.19222 64.5454 8.81672C64.1699 8.69155 63.7694 8.76665 63.469 9.06705L63.4189 9.04202Z" fill="white"/>
<path d="M65.347 13.3228C65.1217 13.3228 64.9215 13.2227 64.7713 13.0224L63.4445 11.22C63.2192 10.8946 63.2943 10.469 63.5947 10.2186C63.9201 9.99335 64.3457 10.0684 64.596 10.3688L65.9228 12.1713C66.1481 12.4967 66.073 12.9223 65.7726 13.1726C65.6474 13.2727 65.4972 13.2978 65.347 13.2978V13.3228Z" fill="white"/>
<path fill-rule="evenodd" clip-rule="evenodd" d="M2.41211 25.7395V28.7435H10.2226V28.5182C6.96821 28.2178 3.71385 26.5155 2.41211 25.7645V25.7395Z" fill="white"/>
<path fill-rule="evenodd" clip-rule="evenodd" d="M23.7412 16.7773C26.2195 16.7773 28.4976 17.8037 30.1248 19.4309C31.777 21.0831 32.7783 23.3361 32.7783 25.8144V29.5945H29.3988C29.9746 28.6182 30.3 27.4917 30.3 26.2901C30.3 22.6602 27.3711 19.7313 23.7412 19.7313C20.1113 19.7313 17.1824 22.6602 17.1824 26.2901C17.1824 27.4917 17.5079 28.6182 18.0836 29.5945H14.7041V25.8144C14.7041 23.3361 15.7305 21.0581 17.3577 19.4309C19.0099 17.7787 21.2629 16.7773 23.7412 16.7773V16.7773Z" fill="white"/>
<path fill-rule="evenodd" clip-rule="evenodd" d="M18.3092 20.8829C19.686 19.5061 21.6136 18.6299 23.7414 18.6299C25.8693 18.6299 27.7718 19.481 29.1487 20.8829C30.5255 22.2848 31.4017 24.1873 31.4017 26.3152C31.4017 28.443 30.5506 30.3456 29.1487 31.7475C27.7718 33.1243 25.8443 34.0005 23.7414 34.0005C21.6386 34.0005 19.711 33.1493 18.3092 31.7475C16.9323 30.3706 16.0562 28.443 16.0562 26.3152C16.0562 24.1873 16.9073 22.2848 18.3092 20.9079V20.8829ZM23.7414 20.933C20.7875 20.933 18.3843 23.3362 18.3843 26.2901C18.3843 29.2441 20.7875 31.6473 23.7414 31.6473C26.6954 31.6473 29.0986 29.2441 29.0986 26.2901C29.0986 23.3362 26.6954 20.933 23.7414 20.933Z" fill="white"/>
<path fill-rule="evenodd" clip-rule="evenodd" d="M23.7412 28.2426C24.8176 28.2426 25.6938 27.3665 25.6938 26.29C25.6938 25.2136 24.8176 24.3374 23.7412 24.3374C22.6647 24.3374 21.7886 25.2136 21.7886 26.29C21.7886 27.3665 22.6647 28.2426 23.7412 28.2426Z" fill="white"/>
<path fill-rule="evenodd" clip-rule="evenodd" d="M79.9165 16.7773C82.3948 16.7773 84.6729 17.8037 86.3 19.4309C87.9523 21.0831 88.9536 23.3361 88.9536 25.8144V29.5945H85.5741C86.1498 28.6182 86.4753 27.4917 86.4753 26.2901C86.4753 22.6602 83.5464 19.7313 79.9165 19.7313C76.2866 19.7313 73.3577 22.6602 73.3577 26.2901C73.3577 27.4917 73.6832 28.6182 74.2589 29.5945H70.8794V25.8144C70.8794 23.3361 71.9058 21.0581 73.5329 19.4309C75.1852 17.7787 77.4382 16.7773 79.9165 16.7773V16.7773Z" fill="white"/>
<path fill-rule="evenodd" clip-rule="evenodd" d="M74.4845 20.8829C75.8613 19.5061 77.7889 18.6299 79.9167 18.6299C82.0446 18.6299 83.9471 19.481 85.324 20.8829C86.7008 22.2848 87.577 24.1873 87.577 26.3152C87.577 28.443 86.7259 30.3456 85.324 31.7475C83.9471 33.1243 82.0196 34.0005 79.9167 34.0005C77.8139 34.0005 75.8863 33.1493 74.4845 31.7475C73.1076 30.3706 72.2314 28.443 72.2314 26.3152C72.2314 24.1873 73.0826 22.2848 74.4845 20.9079V20.8829ZM79.9167 20.933C76.9628 20.933 74.5596 23.3362 74.5596 26.2901C74.5596 29.2441 76.9628 31.6473 79.9167 31.6473C82.8707 31.6473 85.2739 29.2441 85.2739 26.2901C85.2739 23.3362 82.8707 20.933 79.9167 20.933Z" fill="white"/>
<path fill-rule="evenodd" clip-rule="evenodd" d="M79.917 28.2426C80.9934 28.2426 81.8696 27.3665 81.8696 26.29C81.8696 25.2136 80.9934 24.3374 79.917 24.3374C78.8405 24.3374 77.9644 25.2136 77.9644 26.29C77.9644 27.3665 78.8405 28.2426 79.917 28.2426V28.2426Z" fill="white"/>
</svg>
