<svg width="98" height="34" viewBox="0 0 98 34" fill="none" xmlns="http://www.w3.org/2000/svg">
<path fill-rule="evenodd" clip-rule="evenodd" d="M21.3633 11.4958C17.6083 11.4958 15.6306 11.3456 13.5779 10.5946C23.1908 3.58521 22.0392 3.81051 35.0566 3.81051C38.4111 3.81051 43.9435 3.81051 48.2243 3.81051C50.8027 3.81051 53.4062 4.18602 55.8845 4.93702C57.7871 5.51279 60.3405 6.7895 62.8689 8.16635C62.8188 8.21642 62.7688 8.26648 62.7187 8.29152H62.6937C61.9176 9.09259 61.492 10.0439 61.442 11.1203C61.442 11.2455 61.442 11.3706 61.442 11.4708H21.3633V11.4958Z" fill="#009DCF"/>
<path d="M11.1744 29.6202C6.44311 29.6202 1.46144 26.4159 1.23614 26.2657L0.760498 25.9402V18.7306L0.910699 18.4803C1.16103 18.0797 1.78687 16.803 1.78687 15.7766L2.03721 10.795L11.4748 4.33631L11.1744 2.23349L12.1508 2.03323C16.056 1.20712 22.9652 0.631348 28.9232 0.631348H49.676C52.4547 0.881683 54.8329 1.30725 56.7855 1.90806C60.7909 3.1347 69.828 8.56698 71.33 9.46818C72.7569 9.64342 80.317 10.5446 86.5003 12.1468C93.8352 14.0243 96.3135 16.9532 96.6139 18.2549L97.2397 28.744L96.3385 28.9443C94.6112 29.3448 93.1843 29.6202 89.4292 29.6202H85.6993V27.4923H89.4292C92.3331 27.4923 93.6849 27.3421 94.9867 27.0668L94.9366 26.491L94.5111 18.5303C94.3859 18.2299 92.3331 15.8267 85.9746 14.1995C79.2907 12.4972 70.9545 11.571 70.8544 11.546L70.4038 11.3958C70.4038 11.3958 60.1651 5.16242 56.1347 3.91074C54.3072 3.36 52.1043 2.95947 49.5508 2.73416H28.8982C23.541 2.73416 17.4328 3.2098 13.5276 3.91074L13.7279 5.31262L4.06492 11.9465L3.86466 15.8267C3.86466 17.2286 3.16372 18.6805 2.83828 19.3064V24.7637C4.16506 25.5397 7.94512 27.5174 11.3747 27.4673H17.8584V29.5951H11.3997C11.3997 29.5951 11.2245 29.5951 11.1244 29.5951L11.1744 29.6202ZM74.1087 29.6202H29.5491V27.4923H74.1087V29.6202Z" fill="#009DCF"/>
<path fill-rule="evenodd" clip-rule="evenodd" d="M2.1626 17.5789H3.51441C5.24172 17.5789 7.54481 16.2772 7.61991 14.7752V13.3983H2.18763C2.18763 14.8252 2.18763 16.152 2.1626 17.5789Z" fill="#009DCF"/>
<path fill-rule="evenodd" clip-rule="evenodd" d="M88.5281 17.3037L90.5558 20.9586C91.2317 20.5831 92.208 20.3328 92.959 20.3328H93.0091C94.0605 20.3328 95.1119 20.3328 96.1883 20.3328L96.1383 20.1575C96.0632 19.8071 95.0368 18.0798 94.0104 17.3037H88.5281Z" fill="#009DCF"/>
<path d="M52.8055 14.3496H47.8989V15.7765H52.8055V14.3496Z" fill="#009DCF"/>
<path d="M32.3778 14.3496H27.4712V15.7765H32.3778V14.3496Z" fill="#009DCF"/>
<path fill-rule="evenodd" clip-rule="evenodd" d="M35.1816 23.1865V25.014H68.5764L35.1816 23.1865Z" fill="#009DCF"/>
<path d="M96.1881 23.9624H93.7849V25.3893H96.1881V23.9624Z" fill="#009DCF"/>
<path d="M92.3582 23.512H93.4096C93.8352 23.512 94.1606 23.8624 94.1606 24.263V25.0891C94.1606 25.5146 93.8101 25.8401 93.4096 25.8401H92.3582C91.9326 25.8401 91.6072 25.4896 91.6072 25.0891V24.263C91.6072 23.8374 91.9576 23.512 92.3582 23.512Z" fill="#009DCF"/>
<path fill-rule="evenodd" clip-rule="evenodd" d="M63.4192 9.04251C62.8184 9.64331 62.518 10.3443 62.4929 11.1704C62.4929 11.4708 62.568 11.7211 62.7933 11.9214C62.9936 12.1216 63.2439 12.2468 63.5443 12.2468H65.8975C66.273 12.2468 66.6235 12.0465 66.7987 11.7211C66.999 11.3957 66.9739 10.9951 66.7987 10.6697C66.3731 9.96875 65.6722 9.19271 64.5457 8.81721C64.1702 8.69204 63.7696 8.76714 63.4692 9.06754L63.4192 9.04251Z" fill="#009DCF"/>
<path d="M65.3473 13.3234C65.122 13.3234 64.9217 13.2233 64.7715 13.023L63.4447 11.2206C63.2194 10.8952 63.2945 10.4696 63.5949 10.2193C63.9204 9.99396 64.3459 10.0691 64.5963 10.3695L65.923 12.1719C66.1483 12.4973 66.0732 12.9229 65.7728 13.1732C65.6477 13.2733 65.4975 13.2984 65.3473 13.2984V13.3234Z" fill="#009DCF"/>
<path fill-rule="evenodd" clip-rule="evenodd" d="M2.4126 25.74V28.744H10.2231V28.5187C6.9687 28.2183 3.71434 26.516 2.4126 25.765V25.74Z" fill="#009DCF"/>
<path fill-rule="evenodd" clip-rule="evenodd" d="M23.7414 16.7778C26.2198 16.7778 28.4978 17.8042 30.125 19.4314C31.7772 21.0836 32.7786 23.3366 32.7786 25.8149V29.595H29.399C29.9748 28.6187 30.3002 27.4922 30.3002 26.2906C30.3002 22.6607 27.3713 19.7318 23.7414 19.7318C20.1116 19.7318 17.1827 22.6607 17.1827 26.2906C17.1827 27.4922 17.5081 28.6187 18.0839 29.595H14.7043V25.8149C14.7043 23.3366 15.7307 21.0586 17.3579 19.4314C19.0101 17.7792 21.2631 16.7778 23.7414 16.7778Z" fill="#009DCF"/>
<path fill-rule="evenodd" clip-rule="evenodd" d="M18.3092 20.8833C19.686 19.5064 21.6136 18.6302 23.7414 18.6302C25.8693 18.6302 27.7718 19.4814 29.1487 20.8833C30.5255 22.2851 31.4017 24.1877 31.4017 26.3155C31.4017 28.4434 30.5506 30.3459 29.1487 31.7478C27.7718 33.1247 25.8443 34.0008 23.7414 34.0008C21.6386 34.0008 19.711 33.1497 18.3092 31.7478C16.9323 30.371 16.0562 28.4434 16.0562 26.3155C16.0562 24.1877 16.9073 22.2851 18.3092 20.9083V20.8833ZM23.7414 20.9333C20.7875 20.9333 18.3843 23.3366 18.3843 26.2905C18.3843 29.2445 20.7875 31.6477 23.7414 31.6477C26.6954 31.6477 29.0986 29.2445 29.0986 26.2905C29.0986 23.3366 26.6954 20.9333 23.7414 20.9333Z" fill="#009DCF"/>
<path fill-rule="evenodd" clip-rule="evenodd" d="M23.7417 28.2432C24.8181 28.2432 25.6943 27.3671 25.6943 26.2906C25.6943 25.2142 24.8181 24.338 23.7417 24.338C22.6652 24.338 21.7891 25.2142 21.7891 26.2906C21.7891 27.3671 22.6652 28.2432 23.7417 28.2432Z" fill="#009DCF"/>
<path fill-rule="evenodd" clip-rule="evenodd" d="M79.9165 16.7778C82.3948 16.7778 84.6729 17.8042 86.3 19.4314C87.9523 21.0836 88.9536 23.3366 88.9536 25.8149V29.595H85.5741C86.1498 28.6187 86.4753 27.4922 86.4753 26.2906C86.4753 22.6607 83.5464 19.7318 79.9165 19.7318C76.2866 19.7318 73.3577 22.6607 73.3577 26.2906C73.3577 27.4922 73.6832 28.6187 74.2589 29.595H70.8794V25.8149C70.8794 23.3366 71.9058 21.0586 73.5329 19.4314C75.1852 17.7792 77.4382 16.7778 79.9165 16.7778Z" fill="#009DCF"/>
<path fill-rule="evenodd" clip-rule="evenodd" d="M74.4845 20.8833C75.8613 19.5064 77.7889 18.6302 79.9167 18.6302C82.0446 18.6302 83.9471 19.4814 85.324 20.8833C86.7008 22.2851 87.577 24.1877 87.577 26.3155C87.577 28.4434 86.7259 30.3459 85.324 31.7478C83.9471 33.1247 82.0196 34.0008 79.9167 34.0008C77.8139 34.0008 75.8863 33.1497 74.4845 31.7478C73.1076 30.371 72.2314 28.4434 72.2314 26.3155C72.2314 24.1877 73.0826 22.2851 74.4845 20.9083V20.8833ZM79.9167 20.9333C76.9628 20.9333 74.5596 23.3366 74.5596 26.2905C74.5596 29.2445 76.9628 31.6477 79.9167 31.6477C82.8707 31.6477 85.2739 29.2445 85.2739 26.2905C85.2739 23.3366 82.8707 20.9333 79.9167 20.9333Z" fill="#009DCF"/>
<path fill-rule="evenodd" clip-rule="evenodd" d="M79.9167 28.2432C80.9932 28.2432 81.8693 27.3671 81.8693 26.2906C81.8693 25.2142 80.9932 24.338 79.9167 24.338C78.8403 24.338 77.9641 25.2142 77.9641 26.2906C77.9641 27.3671 78.8403 28.2432 79.9167 28.2432Z" fill="#009DCF"/>
</svg>
