<svg width="98" height="31" viewBox="0 0 98 31" fill="none" xmlns="http://www.w3.org/2000/svg">
<g clip-path="url(#clip0_295_126093)">
<path d="M26.62 28.022V25.8942H32.2275C46.822 25.8942 61.8171 25.8441 76.0612 25.8942V28.022C61.8171 27.997 46.822 28.022 32.2275 28.022H26.62ZM16.231 27.8969C11.5998 27.296 3.33878 24.8428 0.685223 22.9152L0.234619 22.5897V16.832L0.509988 16.5316C0.885491 16.1311 1.96193 14.7292 1.96193 13.6778L2.88817 9.62238L1.83676 5.86735L6.74334 6.49319L15.1796 6.31795C15.9807 6.01755 17.1072 5.56695 18.3839 5.06628C24.9928 2.43776 31.126 0.0595703 33.7295 0.0595703H51.303C51.6034 0.0595703 51.8537 0.0846038 52.1542 0.184738C57.4362 1.73682 62.2677 4.2652 67.8752 7.59466H68.0254C83.6213 8.2205 92.7335 9.42211 95.8877 11.2746L96.3884 11.575L96.5136 14.8294L97.7903 15.9058V16.4065C97.7903 20.4369 96.063 21.9889 95.0116 22.9152C95.0366 22.9903 95.0867 23.0904 95.1117 23.1655C95.362 23.7413 95.6374 24.3421 95.6124 24.8928V25.5938L94.9365 25.8441C92.4832 26.8454 89.8046 27.4713 86.7505 27.7967L86.5252 25.6689C89.0035 25.4185 91.2065 24.9429 93.2342 24.2169C93.2091 24.1418 93.1841 24.0918 93.1591 24.0167C92.9338 23.541 92.7335 23.0904 92.7085 22.6398V22.1642L93.0089 21.8137C93.1591 21.6635 93.3593 21.4883 93.5346 21.313C94.4107 20.537 95.5122 19.5857 95.6124 16.8571L94.3857 15.8307L94.2606 12.8267C90.9812 11.3247 82.1193 10.2732 67.9002 9.69748H67.1993L66.974 9.52224C61.4166 6.19278 56.6602 3.68943 51.5033 2.18742C51.4031 2.16239 51.3531 2.16239 51.2529 2.16239H33.6794C31.2762 2.16239 23.666 5.21648 19.1349 7.01889C17.7331 7.56963 16.5565 8.04527 15.7053 8.3707L15.3549 8.4458L6.59313 8.62104L4.71562 8.39573L5.06609 9.59734L4.03972 13.9532C4.03972 15.4051 2.88817 16.9822 2.33744 17.6832V21.4883C5.09112 23.1405 12.4259 25.2683 16.4563 25.794L16.181 27.8969H16.231Z" fill="#009DCF"/>
<path fill-rule="evenodd" clip-rule="evenodd" d="M36.9839 3.61438C37.1341 5.41679 37.2843 7.21921 37.4345 9.02162C34.6307 8.37075 31.8269 7.74491 29.0232 7.09404C32.3777 4.86606 32.9785 3.61438 36.9839 3.61438ZM39.1117 3.61438H51.2029C54.0818 4.46552 56.8605 5.66713 59.5641 7.04397C59.514 7.09404 59.464 7.11907 59.4139 7.16914H59.3889C58.738 7.84505 58.3375 8.62109 58.1873 9.47223C56.1345 9.47223 53.7814 9.47223 51.3531 9.47223H39.6124C39.4371 7.51961 39.2869 5.56699 39.1117 3.61438Z" fill="#009DCF"/>
<path fill-rule="evenodd" clip-rule="evenodd" d="M77.5382 30.0247C76.5369 29.474 75.6857 28.6979 75.0349 27.7717L74.3339 27.6465C73.8833 27.5714 73.4578 27.4713 73.0572 27.3962L72.2061 27.2209V23.5911C72.2061 20.9626 72.857 18.5593 74.5592 16.8571C76.0112 15.4051 78.1641 14.5289 81.2682 14.5289C84.3724 14.5289 86.5253 15.4051 87.9772 16.8571C89.6795 18.5593 90.3304 20.9626 90.3304 23.5911V26.2196L89.4292 26.3698C89.1037 26.4199 88.8033 26.4699 88.5279 26.52L88.2275 26.5701C87.6518 27.7967 86.7506 28.8732 85.6491 29.6242C84.3974 30.4753 82.8954 31.001 81.2682 31.001C79.9164 31.001 78.6397 30.6505 77.5382 30.0247ZM81.2682 17.9585C78.3143 17.9585 75.911 20.3618 75.911 23.3157C75.911 26.2697 78.3143 28.6729 81.2682 28.6729C84.2222 28.6729 86.6254 26.2697 86.6254 23.3157C86.6254 20.3618 84.2222 17.9585 81.2682 17.9585ZM21.5132 17.9585C18.5592 17.9585 16.156 20.3618 16.156 23.3157C16.156 26.2697 18.5592 28.6729 21.5132 28.6729C24.4672 28.6729 26.8704 26.2697 26.8704 23.3157C26.8704 20.3618 24.4672 17.9585 21.5132 17.9585ZM14.8042 16.832C16.2562 15.3801 18.409 14.5039 21.5132 14.5039C24.6174 14.5039 26.7702 15.3801 28.2222 16.832C29.9245 18.5343 30.5753 20.9375 30.5753 23.566V28.022H29.4989H27.5713C26.9204 28.8732 26.0943 29.5741 25.1431 30.0748C24.0666 30.6505 22.8149 30.976 21.5132 30.976C20.2115 30.976 18.8847 30.6255 17.7832 29.9997C16.7819 29.4489 15.9307 28.6729 15.2548 27.7466L14.5539 27.6215C14.1033 27.5464 13.6777 27.4462 13.2772 27.3711L12.426 27.1959V23.566C12.426 20.9375 13.0769 18.5343 14.7792 16.832H14.8042Z" fill="#009DCF"/>
<path fill-rule="evenodd" clip-rule="evenodd" d="M21.5132 25.2684C22.5896 25.2684 23.4658 24.3922 23.4658 23.3158C23.4658 22.2393 22.5896 21.3632 21.5132 21.3632C20.4367 21.3632 19.5605 22.2393 19.5605 23.3158C19.5605 24.3922 20.4367 25.2684 21.5132 25.2684Z" fill="#009DCF"/>
<path d="M45.0948 11.3247H40.1882V12.7516H45.0948V11.3247Z" fill="#009DCF"/>
<path fill-rule="evenodd" clip-rule="evenodd" d="M34.1301 21.7887V23.6161H69.4274L34.1301 21.7887Z" fill="#009DCF"/>
<path d="M81.268 25.2684C82.3464 25.2684 83.2207 24.3942 83.2207 23.3158C83.2207 22.2374 82.3464 21.3632 81.268 21.3632C80.1896 21.3632 79.3154 22.2374 79.3154 23.3158C79.3154 24.3942 80.1896 25.2684 81.268 25.2684Z" fill="#009DCF"/>
<path fill-rule="evenodd" clip-rule="evenodd" d="M86.2498 6.56824H75.0848L70.4036 8.14535V8.64602C75.1599 8.89636 81.0428 9.32193 86.2498 9.99783V6.56824Z" fill="#009DCF"/>
<path fill-rule="evenodd" clip-rule="evenodd" d="M60.1399 7.89505C59.5391 8.49585 59.2387 9.19679 59.2136 10.0229C59.2136 10.3233 59.2887 10.5736 59.514 10.7739C59.7143 10.9742 59.9646 11.0993 60.265 11.0993H62.6182C62.9937 11.0993 63.3442 10.8991 63.5194 10.5736C63.7197 10.2482 63.6946 9.84766 63.5194 9.52223C63.0938 8.82129 62.3929 8.04525 61.2664 7.66975C60.8909 7.54458 60.4903 7.61968 60.1899 7.92008L60.1399 7.89505Z" fill="#009DCF"/>
<path d="M62.0675 12.1758C61.8422 12.1758 61.6419 12.0757 61.4917 11.8754L60.1649 10.073C59.9396 9.74758 60.0147 9.32201 60.3151 9.07167C60.6406 8.84637 61.0912 8.92147 61.3165 9.22188L62.6433 11.0243C62.8686 11.3497 62.7935 11.7753 62.4931 12.0256C62.3679 12.1258 62.2177 12.1508 62.0675 12.1508V12.1758Z" fill="#009DCF"/>
</g>
<defs>
<clipPath id="clip0_295_126093">
<rect width="97.5306" height="30.9414" fill="white" transform="translate(0.234619 0.0595703)"/>
</clipPath>
</defs>
</svg>
