<svg width="98" height="31" viewBox="0 0 98 31" fill="none" xmlns="http://www.w3.org/2000/svg">
<g clip-path="url(#clip0_331_130931)">
<path d="M26.6202 28.0215V25.8937H32.2277C46.8223 25.8937 61.8173 25.8436 76.0614 25.8937V28.0215C61.8173 27.9965 46.8223 28.0215 32.2277 28.0215H26.6202V28.0215ZM16.2313 27.8964C11.6001 27.2956 3.33902 24.8423 0.685467 22.9147L0.234863 22.5893V16.8315L0.510232 16.5311C0.885735 16.1306 1.96218 14.7287 1.96218 13.6773L2.88842 9.62189L1.83701 5.86686L6.74358 6.4927L15.1799 6.31746C15.981 6.01706 17.1075 5.56646 18.3842 5.06579C24.993 2.43727 31.1262 0.059082 33.7297 0.059082H51.3033C51.6037 0.059082 51.854 0.0841156 52.1544 0.18425C57.4365 1.73633 62.2679 4.26471 67.8755 7.59417H68.0257C83.6215 8.22001 92.7337 9.42162 95.888 11.2741L96.3886 11.5745L96.5138 14.8289L97.7905 15.9053V16.406C97.7905 20.4364 96.0632 21.9885 95.0118 22.9147C95.0368 22.9898 95.0869 23.0899 95.1119 23.165C95.3623 23.7408 95.6376 24.3416 95.6126 24.8923V25.5933L94.9367 25.8436C92.4834 26.845 89.8048 27.4708 86.7507 27.7962L86.5254 25.6684C89.0038 25.418 91.2067 24.9424 93.2344 24.2164C93.2094 24.1413 93.1843 24.0913 93.1593 24.0162C92.934 23.5405 92.7337 23.0899 92.7087 22.6393V22.1637L93.0091 21.8132C93.1593 21.663 93.3596 21.4878 93.5348 21.3125C94.411 20.5365 95.5125 19.5852 95.6126 16.8566L94.386 15.8302L94.2608 12.8262C90.9814 11.3242 82.1195 10.2728 67.9005 9.69699H67.1995L66.9742 9.52175C61.4168 6.1923 56.6604 3.68894 51.5035 2.18693C51.4034 2.1619 51.3533 2.1619 51.2532 2.1619H33.6797C31.2764 2.1619 23.6662 5.21599 19.1352 7.0184C17.7333 7.56914 16.5567 8.04478 15.7056 8.37021L15.3551 8.44531L6.59338 8.62055L4.71586 8.39525L5.06633 9.59686L4.03996 13.9527C4.03996 15.4046 2.88842 16.9817 2.33768 17.6827V21.4878C5.09137 23.14 12.4262 25.2678 16.4566 25.7935L16.1812 27.8964H16.2313Z" fill="white"/>
<path fill-rule="evenodd" clip-rule="evenodd" d="M36.9841 3.61377C37.1343 5.41618 37.2845 7.2186 37.4347 9.02101C34.6309 8.37014 31.8272 7.7443 29.0234 7.09343C32.3779 4.86545 32.9787 3.61377 36.9841 3.61377V3.61377ZM39.1119 3.61377H51.2031C54.082 4.46491 56.8607 5.66652 59.5643 7.04336C59.5143 7.09343 59.4642 7.11846 59.4141 7.16853H59.3891C58.7382 7.84444 58.3377 8.62048 58.1875 9.47162C56.1347 9.47162 53.7816 9.47162 51.3533 9.47162H39.6126C39.4374 7.519 39.2872 5.56638 39.1119 3.61377V3.61377Z" fill="white"/>
<path fill-rule="evenodd" clip-rule="evenodd" d="M77.5385 30.0242C76.5371 29.4735 75.686 28.6974 75.0351 27.7712L74.3342 27.646C73.8836 27.5709 73.458 27.4708 73.0575 27.3957L72.2063 27.2205V23.5906C72.2063 20.9621 72.8572 18.5588 74.5595 16.8566C76.0114 15.4046 78.1643 14.5285 81.2685 14.5285C84.3726 14.5285 86.5255 15.4046 87.9775 16.8566C89.6797 18.5588 90.3306 20.9621 90.3306 23.5906V26.2191L89.4294 26.3693C89.104 26.4194 88.8036 26.4694 88.5282 26.5195L88.2278 26.5696C87.652 27.7962 86.7508 28.8727 85.6493 29.6237C84.3977 30.4748 82.8956 31.0005 81.2685 31.0005C79.9167 31.0005 78.6399 30.65 77.5385 30.0242V30.0242ZM81.2685 17.958C78.3145 17.958 75.9113 20.3613 75.9113 23.3152C75.9113 26.2692 78.3145 28.6724 81.2685 28.6724C84.2224 28.6724 86.6256 26.2692 86.6256 23.3152C86.6256 20.3613 84.2224 17.958 81.2685 17.958ZM21.5134 17.958C18.5595 17.958 16.1563 20.3613 16.1563 23.3152C16.1563 26.2692 18.5595 28.6724 21.5134 28.6724C24.4674 28.6724 26.8706 26.2692 26.8706 23.3152C26.8706 20.3613 24.4674 17.958 21.5134 17.958ZM14.8045 16.8315C16.2564 15.3796 18.4093 14.5034 21.5134 14.5034C24.6176 14.5034 26.7705 15.3796 28.2224 16.8315C29.9247 18.5338 30.5756 20.937 30.5756 23.5656V28.0215H29.4991H27.5716C26.9207 28.8727 26.0946 29.5736 25.1433 30.0743C24.0669 30.65 22.8152 30.9755 21.5134 30.9755C20.2117 30.9755 18.8849 30.625 17.7834 29.9992C16.7821 29.4484 15.931 28.6724 15.2551 27.7462L14.5541 27.621C14.1035 27.5459 13.6779 27.4458 13.2774 27.3707L12.4263 27.1954V23.5656C12.4263 20.937 13.0771 18.5338 14.7794 16.8315H14.8045Z" fill="white"/>
<path fill-rule="evenodd" clip-rule="evenodd" d="M21.5132 25.2678C22.5896 25.2678 23.4658 24.3916 23.4658 23.3152C23.4658 22.2387 22.5896 21.3625 21.5132 21.3625C20.4367 21.3625 19.5605 22.2387 19.5605 23.3152C19.5605 24.3916 20.4367 25.2678 21.5132 25.2678Z" fill="white"/>
<path d="M45.095 11.3242H40.1885V12.7511H45.095V11.3242Z" fill="white"/>
<path fill-rule="evenodd" clip-rule="evenodd" d="M34.1304 21.7881V23.6155H69.4276L34.1304 21.7881Z" fill="white"/>
<path d="M81.2685 25.2678C82.3469 25.2678 83.2212 24.3936 83.2212 23.3152C83.2212 22.2368 82.3469 21.3625 81.2685 21.3625C80.1901 21.3625 79.3159 22.2368 79.3159 23.3152C79.3159 24.3936 80.1901 25.2678 81.2685 25.2678Z" fill="white"/>
<path fill-rule="evenodd" clip-rule="evenodd" d="M86.25 6.56787H75.0851L70.4038 8.14498V8.64565C75.1602 8.89599 81.0431 9.32156 86.25 9.99746V6.56787Z" fill="white"/>
<path fill-rule="evenodd" clip-rule="evenodd" d="M60.1401 7.89456C59.5393 8.49536 59.2389 9.1963 59.2139 10.0224C59.2139 10.3228 59.289 10.5731 59.5143 10.7734C59.7145 10.9737 59.9649 11.0989 60.2653 11.0989H62.6184C62.9939 11.0989 63.3444 10.8986 63.5196 10.5731C63.7199 10.2477 63.6949 9.84717 63.5196 9.52174C63.0941 8.8208 62.3931 8.04476 61.2666 7.66926C60.8911 7.54409 60.4906 7.61919 60.1902 7.91959L60.1401 7.89456Z" fill="white"/>
<path d="M62.0677 12.1753C61.8424 12.1753 61.6422 12.0752 61.492 11.8749L60.1652 10.0725C59.9399 9.74709 60.015 9.32152 60.3154 9.07119C60.6408 8.84588 61.0914 8.92099 61.3167 9.22139L62.6435 11.0238C62.8688 11.3492 62.7937 11.7748 62.4933 12.0251C62.3681 12.1253 62.2179 12.1503 62.0677 12.1503V12.1753Z" fill="white"/>
</g>
<defs>
<clipPath id="clip0_331_130931">
<rect width="97.5306" height="30.9414" fill="white" transform="translate(0.234863 0.059082)"/>
</clipPath>
</defs>
</svg>
