<svg width="88" height="37" viewBox="0 0 88 37" fill="none" xmlns="http://www.w3.org/2000/svg">
<g clip-path="url(#clip0_331_130950)">
<path fill-rule="evenodd" clip-rule="evenodd" d="M47.1292 4.3817C49.2069 4.40673 51.3348 4.88237 53.3124 5.50821C58.3192 7.06028 65.4537 12.0169 69.7595 14.4452L66.6053 15.5967C66.3299 15.6969 66.0795 15.7219 65.8042 15.7219L58.8949 15.4966C58.5695 14.9458 58.0688 14.3701 57.8685 14.0196C57.2177 12.9432 56.2664 12.1421 55.0648 11.7165C54.3138 11.4662 53.5127 11.6414 52.9369 12.1922H52.9119C52.1359 12.9932 51.7103 13.9445 51.6602 15.0209C51.6602 15.096 51.6602 15.1711 51.6602 15.2462L19.0916 14.1698L9.52881 12.1671L12.8332 5.38304C16.363 4.80727 20.0179 4.3817 23.3724 4.3817C31.9088 4.3817 38.5927 4.2315 47.1292 4.3817V4.3817Z" fill="white"/>
<path d="M6.95059 32.6446C1.96892 32.6446 0.316705 28.9897 0.266638 28.8395L0.166504 28.4139V21.7801L0.316705 21.5297C0.56704 21.1292 1.19288 19.8525 1.19288 18.8261L1.54335 13.9446L5.94925 5.58337L5.59878 3.18015L6.57509 2.97989C9.57911 2.32901 17.2394 0.827003 23.3726 0.827003C25.3502 0.827003 27.7785 0.801969 30.3569 0.751902C36.1647 0.676802 42.7235 0.576668 47.2796 0.827003C55.6408 1.25257 62.7754 5.73357 69.6846 10.0393C70.8362 10.7653 71.9627 11.4663 73.1142 12.1672C73.7651 12.3424 74.466 12.5177 75.217 12.7179C80.399 14.0197 86.8326 15.6469 87.7838 19.8775V20.0027L87.5335 29.4904L87.7087 31.7935L86.3069 32.1189C85.0051 32.4443 84.0539 32.6696 80.5992 32.6696H75.943V30.5418H80.5992C83.453 30.5418 84.4043 30.3916 85.4307 30.1413L85.3806 29.5405L85.656 20.228C84.8549 17.3491 78.7467 15.7971 74.6663 14.7707C73.8402 14.5704 73.0641 14.3701 72.3632 14.1699L72.0878 14.0447C70.8862 13.3187 69.7096 12.5928 68.508 11.8418C61.8241 7.66116 54.9148 3.35539 47.1044 2.95485C42.5983 2.72955 36.0896 2.80465 30.3069 2.87975C27.7034 2.90479 25.2751 2.95485 23.2975 2.95485C17.9403 2.95485 11.3315 4.13143 7.9269 4.83237L8.10213 5.93384L3.47093 14.7206L3.24563 18.8762C3.24563 20.2781 2.54469 21.73 2.21925 22.3558V28.1636C2.54469 28.7394 3.8965 30.5668 7.12582 30.5168H8.5277V32.6446H7.15086C7.15086 32.6446 6.95059 32.6446 6.87549 32.6446H6.95059ZM63.7016 32.6446H21.8455V30.5168H63.7016V32.6446V32.6446Z" fill="white"/>
<path fill-rule="evenodd" clip-rule="evenodd" d="M69.8346 23.8078C68.3075 23.8078 66.9057 24.4336 65.9043 25.435C64.903 26.4363 64.2771 27.8131 64.2771 29.3652C64.2771 30.9173 64.903 32.2691 65.9043 33.2705C66.9057 34.2718 68.2825 34.8976 69.8346 34.8976C71.3867 34.8976 72.7385 34.2718 73.7398 33.2705C74.7411 32.2691 75.367 30.8923 75.367 29.3652C75.367 27.8382 74.7411 26.4363 73.7398 25.435C72.7385 24.4336 71.3616 23.8078 69.8346 23.8078ZM64.4273 23.9329C65.8042 22.5561 67.7318 21.6799 69.8346 21.6799C71.9374 21.6799 73.865 22.5311 75.2668 23.9329C76.6437 25.3348 77.5199 27.2374 77.5199 29.3652C77.5199 31.4931 76.6687 33.3956 75.2668 34.7975C73.89 36.1743 71.9624 37.0505 69.8346 37.0505C67.7067 37.0505 65.8042 36.1994 64.4273 34.7975C63.0505 33.4207 62.1743 31.4931 62.1743 29.3652C62.1743 27.2374 63.0255 25.3348 64.4273 23.958V23.9329Z" fill="white"/>
<path fill-rule="evenodd" clip-rule="evenodd" d="M69.8349 27.3875C68.7585 27.3875 67.8823 28.2636 67.8823 29.3401C67.8823 30.4165 68.7585 31.2927 69.8349 31.2927C70.9114 31.2927 71.7876 30.4165 71.7876 29.3401C71.7876 28.2636 70.9114 27.3875 69.8349 27.3875Z" fill="white"/>
<path fill-rule="evenodd" clip-rule="evenodd" d="M69.8347 19.8275C72.313 19.8275 74.5911 20.8539 76.2183 22.4811C77.8705 24.1333 78.8718 26.3863 78.8718 28.8646V32.6447H75.4422C76.018 31.6684 76.3434 30.5419 76.3434 29.3403C76.3434 27.5378 75.6175 25.9107 74.4409 24.7341C73.2643 23.5575 71.6371 22.8065 69.8347 22.8065C68.0323 22.8065 66.4051 23.5325 65.2285 24.7091C64.052 25.8856 63.326 27.5128 63.326 29.3152C63.326 30.5168 63.6514 31.6433 64.2272 32.6197H60.7976V28.8396C60.7976 26.3613 61.824 24.0832 63.4512 22.456C65.1034 20.8038 67.3564 19.8025 69.8347 19.8025V19.8275ZM15.2366 19.8275C17.7149 19.8275 19.993 20.8539 21.6201 22.4811C23.2723 24.1333 24.2737 26.3863 24.2737 28.8646V32.6447H21.3698C21.8955 31.6684 22.1959 30.5419 22.1959 29.3403C22.1959 27.4127 21.4199 25.6603 20.1432 24.4087C18.8664 23.1319 17.1391 22.3559 15.2116 22.3559C13.284 22.3559 11.5316 23.1319 10.2799 24.4087C9.00324 25.6854 8.2272 27.4127 8.2272 29.3653C8.2272 30.5669 8.5276 31.6934 9.0533 32.6697H6.14941V28.8897C6.14941 26.4113 7.17579 24.1333 8.80297 22.4811C10.4552 20.8289 12.7082 19.8275 15.2116 19.8275H15.2366Z" fill="white"/>
<path fill-rule="evenodd" clip-rule="evenodd" d="M9.80429 23.9078C11.1811 22.531 13.1087 21.6548 15.2115 21.6548C17.3143 21.6548 19.2419 22.5059 20.6438 23.9078C22.0206 25.3097 22.8968 27.2122 22.8968 29.3401C22.8968 31.4679 22.0457 33.3705 20.6438 34.7724C19.267 36.1492 17.3394 37.0254 15.2115 37.0254C13.0837 37.0254 11.1811 36.1742 9.80429 34.7724C8.42744 33.3955 7.55127 31.4679 7.55127 29.3401C7.55127 27.2122 8.40241 25.3097 9.80429 23.9328V23.9078ZM15.2115 23.9579C12.2576 23.9579 9.85435 26.3611 9.85435 29.315C9.85435 32.269 12.2576 34.6722 15.2115 34.6722C18.1655 34.6722 20.5687 32.269 20.5687 29.315C20.5687 26.3611 18.1655 23.9579 15.2115 23.9579Z" fill="white"/>
<path fill-rule="evenodd" clip-rule="evenodd" d="M15.2119 27.3875C14.1355 27.3875 13.2593 28.2636 13.2593 29.3401C13.2593 30.4165 14.1355 31.2927 15.2119 31.2927C16.2883 31.2927 17.1645 30.4165 17.1645 29.3401C17.1645 28.2636 16.2883 27.3875 15.2119 27.3875Z" fill="white"/>
<path fill-rule="evenodd" clip-rule="evenodd" d="M76.3684 17.324L78.3461 21.7299C79.047 21.4044 80.0484 21.2542 80.7994 21.3293C81.4753 21.4044 84.2039 21.2542 86.7824 21.5046L86.7073 20.1027C86.6071 19.6771 86.3818 19.2766 86.0564 18.9011L76.3184 17.349L76.3684 17.324Z" fill="white"/>
<path d="M42.8989 16.7483H39.8198V18.1752H42.8989V16.7483Z" fill="white"/>
<path d="M24.9248 16.0222H21.8457V17.4491H24.9248V16.0222Z" fill="white"/>
<path fill-rule="evenodd" clip-rule="evenodd" d="M53.6631 12.9182C53.0623 13.519 52.7618 14.22 52.7368 15.0461C52.7368 15.3465 52.8119 15.5968 53.0372 15.7971C53.2375 15.9974 53.4878 16.1225 53.7882 16.1225H56.1414C56.5169 16.1225 56.8673 15.9223 57.0426 15.5968C57.2428 15.2714 57.2178 14.8709 57.0426 14.5454C56.617 13.8445 55.9161 13.0684 54.7896 12.6929C54.4141 12.5678 54.0135 12.6429 53.7131 12.9433L53.6631 12.9182Z" fill="white"/>
<path d="M55.5658 17.1988C55.3405 17.1988 55.1402 17.0986 54.99 16.8984L53.6632 15.096C53.4379 14.7705 53.513 14.345 53.8134 14.0946C54.1389 13.8693 54.5644 13.9444 54.8148 14.2448L56.1415 16.0472C56.3668 16.3727 56.2917 16.7982 55.9913 17.0486C55.8662 17.1487 55.716 17.1737 55.5658 17.1737V17.1988Z" fill="white"/>
<path fill-rule="evenodd" clip-rule="evenodd" d="M2.24414 19.6773H3.19541C5.3483 19.6773 8.22715 18.0501 8.32729 16.1726V14.4453H2.49448C2.41938 16.2477 2.29421 18.3255 2.24414 19.6773V19.6773Z" fill="white"/>
<path d="M86.2318 27.012H83.8286V28.4389H86.2318V27.012Z" fill="white"/>
<path d="M82.4014 26.5364H83.4528C83.8784 26.5364 84.2038 26.8868 84.2038 27.2874V28.1135C84.2038 28.5391 83.8533 28.8645 83.4528 28.8645H82.4014C81.9758 28.8645 81.6504 28.514 81.6504 28.1135V27.2874C81.6504 26.8618 82.0009 26.5364 82.4014 26.5364Z" fill="white"/>
<path fill-rule="evenodd" clip-rule="evenodd" d="M26.1265 26.2361V28.0385H59.4962L26.1265 26.2361Z" fill="white"/>
</g>
<defs>
<clipPath id="clip0_331_130950">
<rect width="87.6674" height="36.3236" fill="white" transform="translate(0.166504 0.676758)"/>
</clipPath>
</defs>
</svg>
