<svg width="88" height="37" viewBox="0 0 88 37" fill="none" xmlns="http://www.w3.org/2000/svg">
<g clip-path="url(#clip0_295_126081)">
<path fill-rule="evenodd" clip-rule="evenodd" d="M47.1292 4.38231C49.2069 4.40734 51.3348 4.88298 53.3124 5.50882C58.3192 7.06089 65.4537 12.0175 69.7595 14.4458L66.6053 15.5973C66.3299 15.6975 66.0795 15.7225 65.8042 15.7225L58.8949 15.4972C58.5695 14.9465 58.0688 14.3707 57.8685 14.0202C57.2177 12.9438 56.2664 12.1427 55.0648 11.7171C54.3138 11.4668 53.5127 11.642 52.9369 12.1928H52.9119C52.1359 12.9938 51.7103 13.9451 51.6602 15.0216C51.6602 15.0967 51.6602 15.1718 51.6602 15.2469L19.0916 14.1704L9.52881 12.1677L12.8332 5.38365C16.363 4.80788 20.0179 4.38231 23.3724 4.38231C31.9088 4.38231 38.5927 4.23211 47.1292 4.38231Z" fill="#009DCF"/>
<path d="M6.95035 32.6452C1.96867 32.6452 0.316461 28.9903 0.266394 28.8401L0.16626 28.4146V21.7807L0.316461 21.5303C0.566796 21.1298 1.19263 19.8531 1.19263 18.8267L1.5431 13.9452L5.949 5.58398L5.59854 3.18076L6.57484 2.9805C9.57887 2.32963 17.2391 0.827613 23.3723 0.827613C25.35 0.827613 27.7782 0.80258 30.3567 0.752513C36.1645 0.677412 42.7233 0.577278 47.2794 0.827613C55.6406 1.25318 62.7751 5.73418 69.6844 10.04C70.8359 10.7659 71.9624 11.4669 73.114 12.1678C73.7648 12.343 74.4658 12.5183 75.2168 12.7185C80.3987 14.0203 86.8323 15.6475 87.7836 19.8781V20.0033L87.5333 29.491L87.7085 31.7941L86.3066 32.1195C85.0049 32.445 84.0536 32.6703 80.599 32.6703H75.9427V30.5424H80.599C83.4528 30.5424 84.4041 30.3922 85.4305 30.1419L85.3804 29.5411L85.6558 20.2286C84.8547 17.3497 78.7465 15.7977 74.666 14.7713C73.8399 14.571 73.0639 14.3708 72.363 14.1705L72.0876 14.0453C70.886 13.3193 69.7094 12.5934 68.5078 11.8424C61.8238 7.66177 54.9146 3.356 47.1041 2.95546C42.5981 2.73016 36.0894 2.80526 30.3066 2.88036C27.7031 2.9054 25.2749 2.95546 23.2972 2.95546C17.9401 2.95546 11.3312 4.13204 7.92665 4.83298L8.10189 5.93445L3.47069 14.7212L3.24538 18.8768C3.24538 20.2787 2.54444 21.7306 2.21901 22.3564V28.1642C2.54444 28.74 3.89626 30.5674 7.12558 30.5174H8.52746V32.6452H7.15061C7.15061 32.6452 6.95035 32.6452 6.87525 32.6452H6.95035ZM63.7013 32.6452H21.8453V30.5174H63.7013V32.6452Z" fill="#009DCF"/>
<path fill-rule="evenodd" clip-rule="evenodd" d="M69.8346 23.8084C68.3075 23.8084 66.9057 24.4342 65.9043 25.4356C64.903 26.4369 64.2771 27.8138 64.2771 29.3658C64.2771 30.9179 64.903 32.2697 65.9043 33.2711C66.9057 34.2724 68.2825 34.8982 69.8346 34.8982C71.3867 34.8982 72.7385 34.2724 73.7398 33.2711C74.7411 32.2697 75.367 30.8929 75.367 29.3658C75.367 27.8388 74.7411 26.4369 73.7398 25.4356C72.7385 24.4342 71.3616 23.8084 69.8346 23.8084ZM64.4273 23.9336C65.8042 22.5567 67.7318 21.6805 69.8346 21.6805C71.9374 21.6805 73.865 22.5317 75.2668 23.9336C76.6437 25.3354 77.5199 27.238 77.5199 29.3658C77.5199 31.4937 76.6687 33.3962 75.2668 34.7981C73.89 36.175 71.9624 37.0511 69.8346 37.0511C67.7067 37.0511 65.8042 36.2 64.4273 34.7981C63.0505 33.4213 62.1743 31.4937 62.1743 29.3658C62.1743 27.238 63.0255 25.3354 64.4273 23.9586V23.9336Z" fill="#009DCF"/>
<path fill-rule="evenodd" clip-rule="evenodd" d="M69.8345 27.3882C68.758 27.3882 67.8818 28.2644 67.8818 29.3408C67.8818 30.4172 68.758 31.2934 69.8345 31.2934C70.9109 31.2934 71.7871 30.4172 71.7871 29.3408C71.7871 28.2644 70.9109 27.3882 69.8345 27.3882Z" fill="#009DCF"/>
<path fill-rule="evenodd" clip-rule="evenodd" d="M69.8345 19.828C72.3128 19.828 74.5908 20.8544 76.218 22.4816C77.8702 24.1338 78.8716 26.3868 78.8716 28.8651V32.6452H75.442C76.0177 31.6689 76.3432 30.5424 76.3432 29.3408C76.3432 27.5383 75.6172 25.9112 74.4406 24.7346C73.2641 23.558 71.6369 22.807 69.8345 22.807C68.032 22.807 66.4049 23.533 65.2283 24.7096C64.0517 25.8861 63.3257 27.5133 63.3257 29.3157C63.3257 30.5173 63.6512 31.6438 64.227 32.6201H60.7974V28.8401C60.7974 26.3618 61.8237 24.0837 63.4509 22.4565C65.1031 20.8043 67.3561 19.803 69.8345 19.803V19.828ZM15.2363 19.828C17.7147 19.828 19.9927 20.8544 21.6199 22.4816C23.2721 24.1338 24.2734 26.3868 24.2734 28.8651V32.6452H21.3696C21.8953 31.6689 22.1957 30.5424 22.1957 29.3408C22.1957 27.4132 21.4196 25.6608 20.1429 24.4091C18.8662 23.1324 17.1389 22.3564 15.2113 22.3564C13.2837 22.3564 11.5314 23.1324 10.2797 24.4091C9.00299 25.6859 8.22695 27.4132 8.22695 29.3658C8.22695 30.5674 8.52735 31.6939 9.05306 32.6702H6.14917V28.8902C6.14917 26.4118 7.17554 24.1338 8.80272 22.4816C10.4549 20.8294 12.708 19.828 15.2113 19.828H15.2363Z" fill="#009DCF"/>
<path fill-rule="evenodd" clip-rule="evenodd" d="M9.80429 23.9085C11.1811 22.5317 13.1087 21.6555 15.2115 21.6555C17.3143 21.6555 19.2419 22.5067 20.6438 23.9085C22.0206 25.3104 22.8968 27.213 22.8968 29.3408C22.8968 31.4687 22.0457 33.3712 20.6438 34.7731C19.267 36.1499 17.3394 37.0261 15.2115 37.0261C13.0837 37.0261 11.1811 36.175 9.80429 34.7731C8.42744 33.3962 7.55127 31.4687 7.55127 29.3408C7.55127 27.213 8.40241 25.3104 9.80429 23.9336V23.9085ZM15.2115 23.9586C12.2576 23.9586 9.85435 26.3618 9.85435 29.3158C9.85435 32.2697 12.2576 34.673 15.2115 34.673C18.1655 34.673 20.5687 32.2697 20.5687 29.3158C20.5687 26.3618 18.1655 23.9586 15.2115 23.9586Z" fill="#009DCF"/>
<path fill-rule="evenodd" clip-rule="evenodd" d="M15.2114 27.3882C14.135 27.3882 13.2588 28.2644 13.2588 29.3408C13.2588 30.4172 14.135 31.2934 15.2114 31.2934C16.2878 31.2934 17.164 30.4172 17.164 29.3408C17.164 28.2644 16.2878 27.3882 15.2114 27.3882Z" fill="#009DCF"/>
<path fill-rule="evenodd" clip-rule="evenodd" d="M76.3684 17.3247L78.3461 21.7306C79.047 21.4052 80.0484 21.255 80.7994 21.3301C81.4753 21.4052 84.2039 21.255 86.7824 21.5053L86.7073 20.1034C86.6071 19.6779 86.3818 19.2773 86.0564 18.9018L76.3184 17.3497L76.3684 17.3247Z" fill="#009DCF"/>
<path d="M42.8985 16.7489H39.8193V18.1758H42.8985V16.7489Z" fill="#009DCF"/>
<path d="M24.9243 16.0229H21.8452V17.4499H24.9243V16.0229Z" fill="#009DCF"/>
<path fill-rule="evenodd" clip-rule="evenodd" d="M53.6628 12.9187C53.062 13.5195 52.7616 14.2205 52.7366 15.0466C52.7366 15.347 52.8117 15.5973 53.037 15.7976C53.2372 15.9979 53.4876 16.123 53.788 16.123H56.1411C56.5166 16.123 56.8671 15.9228 57.0423 15.5973C57.2426 15.2719 57.2176 14.8713 57.0423 14.5459C56.6168 13.845 55.9158 13.0689 54.7893 12.6934C54.4138 12.5683 54.0133 12.6434 53.7129 12.9438L53.6628 12.9187Z" fill="#009DCF"/>
<path d="M55.5655 17.1995C55.3402 17.1995 55.14 17.0994 54.9898 16.8991L53.663 15.0967C53.4377 14.7713 53.5128 14.3457 53.8132 14.0954C54.1386 13.8701 54.5642 13.9452 54.8145 14.2456L56.1413 16.048C56.3666 16.3734 56.2915 16.799 55.9911 17.0493C55.8659 17.1494 55.7157 17.1745 55.5655 17.1745V17.1995Z" fill="#009DCF"/>
<path fill-rule="evenodd" clip-rule="evenodd" d="M2.24414 19.6778H3.19541C5.3483 19.6778 8.22715 18.0506 8.32729 16.1731V14.4458H2.49448C2.41938 16.2482 2.29421 18.326 2.24414 19.6778Z" fill="#009DCF"/>
<path d="M86.2316 27.0127H83.8284V28.4396H86.2316V27.0127Z" fill="#009DCF"/>
<path d="M82.4014 26.537H83.4528C83.8784 26.537 84.2038 26.8875 84.2038 27.288V28.1141C84.2038 28.5397 83.8533 28.8651 83.4528 28.8651H82.4014C81.9758 28.8651 81.6504 28.5146 81.6504 28.1141V27.288C81.6504 26.8624 82.0009 26.537 82.4014 26.537Z" fill="#009DCF"/>
<path fill-rule="evenodd" clip-rule="evenodd" d="M26.126 26.2366V28.039H59.4957L26.126 26.2366Z" fill="#009DCF"/>
</g>
<defs>
<clipPath id="clip0_295_126081">
<rect width="87.6674" height="36.3236" fill="white" transform="translate(0.16626 0.677368)"/>
</clipPath>
</defs>
</svg>
