<svg width="108" height="41" viewBox="0 0 108 41" fill="none" xmlns="http://www.w3.org/2000/svg">
<g clip-path="url(#clip0_331_130975)">
<path fill-rule="evenodd" clip-rule="evenodd" d="M45.4259 3.82568H49.6065V13.4636H43.999L45.4259 3.82568V3.82568ZM53.4367 3.82568H62.1984C66.2789 4.20119 69.5582 6.304 72.6874 8.70722C72.362 8.80736 72.0616 8.98259 71.7862 9.23293C70.9601 10.059 70.5846 12.2369 70.5346 13.4386H53.4617V3.85072L53.4367 3.82568Z" fill="white"/>
<path d="M11.4806 34.3665C6.84941 34.3665 1.26693 32.2136 1.04163 32.1135L0.365723 31.8381V22.9012L0.691158 22.6008C1.14176 22.1502 2.11807 20.9486 2.11807 20.1225L2.2182 18.3701C2.2933 17.1685 2.3684 15.7666 2.39344 14.5149C2.41847 13.6388 3.74525 12.0867 5.09706 11.586L5.44753 11.536H38.1914L39.8186 3.22482C40.0939 1.67275 41.3706 0.621338 42.9227 0.621338H62.2736C68.3568 1.14704 72.0367 4.12603 75.9419 7.28026C77.7444 8.7322 79.5968 10.2342 81.7748 11.586C82.726 11.6862 84.1279 11.7362 85.7551 11.7863C95.4931 12.1618 104.33 12.8377 105.306 17.1685L106.258 24.9539C106.833 25.3545 107.659 26.1305 107.659 27.3071V30.6616C107.659 31.5878 107.559 32.514 106.733 33.0398C105.181 34.0161 103.379 34.3415 99.8239 34.3415H98.2969V32.2136H99.8239C102.878 32.2136 104.38 31.9633 105.532 31.2874C105.507 31.2874 105.532 31.0621 105.532 30.6616V27.3071C105.532 27.0317 105.056 26.6812 104.806 26.5561L104.28 26.3057L103.203 17.519C102.528 14.54 91.1373 14.1144 85.68 13.8891C83.8525 13.814 82.3255 13.7639 81.3241 13.6388L80.8735 13.4886C78.4703 12.0366 76.5177 10.4345 74.5901 8.8824C70.8101 5.80328 67.5307 3.17476 62.1735 2.69912H42.8977C42.372 2.69912 41.9464 3.04959 41.8463 3.55026L39.8937 13.5887H5.6478C5.07203 13.8641 4.54632 14.54 4.47122 14.7402C4.47122 15.7666 4.39612 17.1685 4.34605 18.3951L4.27095 20.0724C4.27095 21.5494 3.11941 23.0263 2.54364 23.7022V30.2861C4.17082 30.8618 8.50162 32.1886 11.9062 32.1385H13.7336V34.2664H11.9312C11.806 34.2664 11.6809 34.2664 11.5307 34.2664L11.4806 34.3665ZM82.8512 34.3665H29.1042V32.2387H82.8512V34.3665Z" fill="white"/>
<path fill-rule="evenodd" clip-rule="evenodd" d="M105.256 26.4308L104.38 18.2949H102.077V26.4308H105.256Z" fill="white"/>
<path d="M60.1956 15.3411H55.2891V16.768H60.1956V15.3411Z" fill="white"/>
<path fill-rule="evenodd" clip-rule="evenodd" d="M3.16943 20.0223H4.12071C6.27359 20.0223 9.15245 18.3951 9.25258 16.5176V14.7903H3.41977C3.34467 16.5927 3.2195 18.6705 3.16943 20.0223V20.0223Z" fill="white"/>
<path fill-rule="evenodd" clip-rule="evenodd" d="M72.5376 9.95891C71.9368 10.5597 71.6364 12.6876 71.6113 13.4886C71.6113 13.789 71.6864 14.0394 71.9117 14.2396C72.112 14.4399 72.3623 14.5651 72.6627 14.5651H75.0159C77.5443 14.5651 74.5903 10.034 73.639 9.70857C73.2635 9.58341 72.863 9.65851 72.5626 9.93388L72.5376 9.95891Z" fill="white"/>
<path fill-rule="evenodd" clip-rule="evenodd" d="M36.8896 27.4573V29.2597H75.3161L36.8896 27.4573Z" fill="white"/>
<path d="M78.32 33.2901H76.8931V30.1609C76.8931 22.726 82.9512 16.6929 90.3611 16.6929C97.771 16.6929 103.829 22.726 103.829 30.1609V33.1149H102.402V30.1609C102.402 23.502 96.995 18.0947 90.3361 18.0947C83.6771 18.0947 78.2699 23.502 78.2699 30.1609V33.2901H78.32Z" fill="white"/>
<path fill-rule="evenodd" clip-rule="evenodd" d="M90.3613 29.6853C89.0846 29.6853 88.0332 30.7367 88.0332 32.0134C88.0332 33.2901 89.0846 34.3415 90.3613 34.3415C91.638 34.3415 92.6894 33.2901 92.6894 32.0134C92.6894 30.7367 91.638 29.6853 90.3613 29.6853Z" fill="white"/>
<path d="M34.8621 33.2901H33.4352V30.1609C33.4352 23.502 28.028 18.0947 21.369 18.0947C14.7101 18.0947 9.30289 23.502 9.30289 30.1609V33.0398H7.87598V30.1609C7.87598 22.726 13.9341 16.6929 21.344 16.6929C28.7539 16.6929 34.812 22.726 34.812 30.1609V33.2901H34.8621Z" fill="white"/>
<path fill-rule="evenodd" clip-rule="evenodd" d="M90.3611 19.8722C93.1899 19.8722 95.7684 21.0237 97.6208 22.9013C99.4733 24.7537 100.65 27.3322 100.65 30.161V34.3416H99.0478C98.5721 36.119 97.5457 37.6961 96.1939 38.8476C94.6168 40.1744 92.5891 41.0005 90.3611 41.0005C88.1331 41.0005 86.1054 40.1994 84.5533 38.8476C83.1765 37.6961 82.1752 36.119 81.6995 34.3165H80.0974V30.1359C80.0974 27.3072 81.2489 24.7287 83.1264 22.8762C84.9789 21.0237 87.5574 19.8472 90.3862 19.8472L90.3611 19.8722ZM90.3611 26.0054C87.0567 26.0054 84.3531 28.684 84.3531 32.0135C84.3531 35.3429 87.0317 38.0215 90.3611 38.0215C93.6906 38.0215 96.3692 35.3429 96.3692 32.0135C96.3692 28.684 93.6906 26.0054 90.3611 26.0054ZM21.3938 26.0054C18.0893 26.0054 15.3857 28.684 15.3857 32.0135C15.3857 35.3429 18.0643 38.0215 21.3938 38.0215C24.7232 38.0215 27.4018 35.3429 27.4018 32.0135C27.4018 28.684 24.7232 26.0054 21.3938 26.0054ZM21.3938 19.8722C24.2225 19.8722 26.801 21.0237 28.6535 22.9013C30.506 24.7537 31.6825 27.3322 31.6825 30.161V34.3416H30.0804C29.6048 36.119 28.5784 37.6961 27.2266 38.8476C25.6495 40.1744 23.6217 41.0005 21.3938 41.0005C19.1658 41.0005 17.1381 40.1994 15.5609 38.8476C14.1841 37.671 13.1828 36.119 12.7071 34.3416H11.105V30.161C11.105 27.3322 12.2565 24.7537 14.134 22.9013C16.0116 21.0488 18.565 19.8722 21.3938 19.8722V19.8722Z" fill="white"/>
<path fill-rule="evenodd" clip-rule="evenodd" d="M21.394 29.6853C20.1173 29.6853 19.0659 30.7367 19.0659 32.0134C19.0659 33.2901 20.1173 34.3415 21.394 34.3415C22.6707 34.3415 23.7222 33.2901 23.7222 32.0134C23.7222 30.7367 22.6707 29.6853 21.394 29.6853Z" fill="white"/>
</g>
<defs>
<clipPath id="clip0_331_130975">
<rect width="107.269" height="40.3791" fill="white" transform="translate(0.365723 0.621338)"/>
</clipPath>
</defs>
</svg>
