<svg width="108" height="41" viewBox="0 0 108 41" fill="none" xmlns="http://www.w3.org/2000/svg">
<g clip-path="url(#clip0_295_126063)">
<path fill-rule="evenodd" clip-rule="evenodd" d="M45.4262 3.82629H49.6068V13.4642H43.9993L45.4262 3.82629ZM53.4369 3.82629H62.1986C66.2791 4.2018 69.5585 6.30461 72.6877 8.70783C72.3622 8.80797 72.0618 8.9832 71.7865 9.23354C70.9604 10.0596 70.5849 12.2376 70.5348 13.4392H53.4619V3.85133L53.4369 3.82629Z" fill="#009DCF"/>
<path d="M11.4806 34.3671C6.84941 34.3671 1.26693 32.2143 1.04163 32.1141L0.365723 31.8388V22.9018L0.691158 22.6014C1.14176 22.1508 2.11807 20.9492 2.11807 20.1231L2.2182 18.3707C2.2933 17.1691 2.3684 15.7672 2.39344 14.5156C2.41847 13.6394 3.74525 12.0873 5.09706 11.5866L5.44753 11.5366H38.1914L39.8186 3.22543C40.0939 1.67336 41.3706 0.621948 42.9227 0.621948H62.2736C68.3568 1.14765 72.0367 4.12664 75.9419 7.28087C77.7444 8.73281 79.5968 10.2348 81.7747 11.5866C82.726 11.6868 84.1279 11.7368 85.7551 11.7869C95.4931 12.1624 104.33 12.8383 105.306 17.1691L106.258 24.9545C106.833 25.3551 107.659 26.1311 107.659 27.3077V30.6622C107.659 31.5884 107.559 32.5147 106.733 33.0404C105.181 34.0167 103.379 34.3421 99.8239 34.3421H98.2969V32.2143H99.8239C102.878 32.2143 104.38 31.9639 105.532 31.288C105.507 31.288 105.532 31.0627 105.532 30.6622V27.3077C105.532 27.0323 105.056 26.6818 104.806 26.5567L104.28 26.3063L103.203 17.5196C102.528 14.5406 91.1373 14.115 85.68 13.8897C83.8525 13.8146 82.3255 13.7645 81.3242 13.6394L80.8735 13.4892C78.4703 12.0372 76.5177 10.4351 74.5901 8.88301C70.8101 5.80389 67.5307 3.17537 62.1735 2.69973H42.8977C42.372 2.69973 41.9464 3.0502 41.8463 3.55087L39.8937 13.5893H5.6478C5.07203 13.8647 4.54632 14.5406 4.47122 14.7409C4.47122 15.7672 4.39612 17.1691 4.34605 18.3958L4.27095 20.073C4.27095 21.55 3.11941 23.027 2.54364 23.7029V30.2867C4.17082 30.8624 8.50162 32.1892 11.9062 32.1392H13.7336V34.267H11.9312C11.806 34.267 11.6809 34.267 11.5307 34.267L11.4806 34.3671ZM82.8512 34.3671H29.1042V32.2393H82.8512V34.3671Z" fill="#009DCF"/>
<path fill-rule="evenodd" clip-rule="evenodd" d="M105.256 26.4316L104.38 18.2957H102.077V26.4316H105.256Z" fill="#009DCF"/>
<path d="M60.1959 15.3417H55.2893V16.7686H60.1959V15.3417Z" fill="#009DCF"/>
<path fill-rule="evenodd" clip-rule="evenodd" d="M3.16943 20.0229H4.12071C6.27359 20.0229 9.15245 18.3957 9.25258 16.5182V14.7909H3.41977C3.34467 16.5933 3.2195 18.6711 3.16943 20.0229Z" fill="#009DCF"/>
<path fill-rule="evenodd" clip-rule="evenodd" d="M72.5373 9.9594C71.9365 10.5602 71.6361 12.6881 71.6111 13.4891C71.6111 13.7895 71.6862 14.0399 71.9115 14.2401C72.1118 14.4404 72.3621 14.5656 72.6625 14.5656H75.0156C77.544 14.5656 74.5901 10.0345 73.6388 9.70906C73.2633 9.5839 72.8628 9.659 72.5624 9.93436L72.5373 9.9594Z" fill="#009DCF"/>
<path fill-rule="evenodd" clip-rule="evenodd" d="M36.8896 27.4579V29.2603H75.3161L36.8896 27.4579Z" fill="#009DCF"/>
<path d="M78.3202 33.2907H76.8933V30.1615C76.8933 22.7266 82.9514 16.6935 90.3614 16.6935C97.7713 16.6935 103.829 22.7266 103.829 30.1615V33.1155H102.402V30.1615C102.402 23.5026 96.9952 18.0954 90.3363 18.0954C83.6774 18.0954 78.2702 23.5026 78.2702 30.1615V33.2907H78.3202Z" fill="#009DCF"/>
<path fill-rule="evenodd" clip-rule="evenodd" d="M90.3613 29.6859C89.0846 29.6859 88.0332 30.7373 88.0332 32.014C88.0332 33.2907 89.0846 34.3422 90.3613 34.3422C91.638 34.3422 92.6894 33.2907 92.6894 32.014C92.6894 30.7373 91.638 29.6859 90.3613 29.6859Z" fill="#009DCF"/>
<path d="M34.8619 33.2907H33.435V30.1615C33.435 23.5026 28.0277 18.0954 21.3688 18.0954C14.7099 18.0954 9.30264 23.5026 9.30264 30.1615V33.0404H7.87573V30.1615C7.87573 22.7266 13.9338 16.6935 21.3438 16.6935C28.7537 16.6935 34.8118 22.7266 34.8118 30.1615V33.2907H34.8619Z" fill="#009DCF"/>
<path fill-rule="evenodd" clip-rule="evenodd" d="M90.3614 19.8727C93.1902 19.8727 95.7686 21.0242 97.6211 22.9017C99.4736 24.7542 100.65 27.3327 100.65 30.1615V34.3421H99.048C98.5724 36.1194 97.546 37.6966 96.1942 38.8481C94.6171 40.1749 92.5894 41.001 90.3614 41.001C88.1334 41.001 86.1057 40.1999 84.5536 38.8481C83.1768 37.6966 82.1754 36.1194 81.6998 34.317H80.0976V30.1364C80.0976 27.3076 81.2492 24.7292 83.1267 22.8767C84.9792 21.0242 87.5576 19.8477 90.3864 19.8477L90.3614 19.8727ZM90.3614 26.0059C87.0569 26.0059 84.3533 28.6845 84.3533 32.014C84.3533 35.3434 87.0319 38.022 90.3614 38.022C93.6908 38.022 96.3694 35.3434 96.3694 32.014C96.3694 28.6845 93.6908 26.0059 90.3614 26.0059ZM21.394 26.0059C18.0896 26.0059 15.386 28.6845 15.386 32.014C15.386 35.3434 18.0645 38.022 21.394 38.022C24.7235 38.022 27.4021 35.3434 27.4021 32.014C27.4021 28.6845 24.7235 26.0059 21.394 26.0059ZM21.394 19.8727C24.2228 19.8727 26.8012 21.0242 28.6537 22.9017C30.5062 24.7542 31.6828 27.3327 31.6828 30.1615V34.3421H30.0806C29.605 36.1194 28.5786 37.6966 27.2268 38.8481C25.6497 40.1749 23.622 41.001 21.394 41.001C19.166 41.001 17.1383 40.1999 15.5612 38.8481C14.1843 37.6715 13.183 36.1194 12.7074 34.3421H11.1052V30.1615C11.1052 27.3327 12.2568 24.7542 14.1343 22.9017C16.0118 21.0493 18.5652 19.8727 21.394 19.8727Z" fill="#009DCF"/>
<path fill-rule="evenodd" clip-rule="evenodd" d="M21.3938 29.6859C20.1171 29.6859 19.0657 30.7373 19.0657 32.014C19.0657 33.2907 20.1171 34.3422 21.3938 34.3422C22.6705 34.3422 23.7219 33.2907 23.7219 32.014C23.7219 30.7373 22.6705 29.6859 21.3938 29.6859Z" fill="#009DCF"/>
</g>
<defs>
<clipPath id="clip0_295_126063">
<rect width="107.269" height="40.3791" fill="white" transform="translate(0.365723 0.621948)"/>
</clipPath>
</defs>
</svg>
