<svg width="96" height="34" viewBox="0 0 96 34" fill="none" xmlns="http://www.w3.org/2000/svg">
<g clip-path="url(#clip0_295_125999)">
<path fill-rule="evenodd" clip-rule="evenodd" d="M27.5851 11.5209C23.8301 11.5209 21.8775 11.3707 19.8247 10.6197C23.4295 8.01617 28.987 3.83557 33.8685 3.83557C37.5484 3.83557 42.0795 3.83557 45.6343 3.83557C51.2167 3.83557 55.9731 5.83825 60.5793 8.41671C59.8283 9.16771 59.4027 10.119 59.3777 11.1704C59.3777 11.2956 59.3777 11.4207 59.3777 11.5209H27.5851Z" fill="#009DCF"/>
<path d="M11.2133 29.6452C6.48193 29.6452 1.50026 26.4409 1.27495 26.2907L0.799316 25.9653V18.7556L0.949518 18.5053C1.19985 18.1047 1.82569 16.828 1.82569 15.8267L2.10106 8.34167L12.3398 7.66576L12.7153 7.49053C17.747 5.11234 27.1096 0.656372 32.4417 0.656372H47.612C50.3907 0.906707 52.7689 1.33228 54.7215 1.93308C58.7269 3.15972 67.764 8.592 69.266 9.49321C70.6929 9.66844 78.253 10.5696 84.4363 12.1718C91.7711 14.0493 94.2495 16.9782 94.5499 18.28L95.2007 28.769L94.2995 28.9693C92.5722 29.3698 91.1703 29.6202 87.3903 29.6202H83.6603V27.4923H87.3903C90.2942 27.4923 91.646 27.3421 92.9477 27.0918L92.4721 18.5553C92.3469 18.2299 90.2942 15.8517 83.9357 14.2245C77.2517 12.5223 68.9155 11.596 68.8154 11.571L68.3648 11.4208C68.3648 11.4208 58.1261 5.18744 54.0957 3.93576C52.2682 3.38503 50.0403 2.98449 47.5119 2.75919H32.4417C27.5852 2.75919 18.498 7.06496 13.6165 9.39307L12.6652 9.76858L4.12878 10.3193L3.92851 15.8517C3.92851 17.2786 3.22757 18.7306 2.90213 19.3314V24.7887C4.22891 25.5647 8.08407 27.5424 11.4386 27.4923H14.4426V29.6202H11.4886C11.4886 29.6202 11.2884 29.6202 11.2133 29.6202V29.6452ZM72.0447 29.6452H26.0832V27.5173H72.0197V29.6452H72.0447Z" fill="#009DCF"/>
<path fill-rule="evenodd" clip-rule="evenodd" d="M2.9772 14.8003C2.92713 15.8517 2.9021 16.9532 2.9021 17.6041H4.25391C5.98122 17.6041 8.28431 16.3023 8.35941 14.8003V13.4235H2.92713V14.8003H2.9772Z" fill="#009DCF"/>
<path fill-rule="evenodd" clip-rule="evenodd" d="M86.4641 17.3287L88.4918 20.9836C89.1677 20.6081 90.144 20.3578 90.895 20.3578H90.9451C91.9965 20.3578 93.0479 20.3578 94.1244 20.3578L94.0743 20.1826C93.9992 19.8321 92.9728 18.1048 91.9465 17.3287H86.4641Z" fill="#009DCF"/>
<path d="M50.7413 14.3748H45.8347V15.8017H50.7413V14.3748Z" fill="#009DCF"/>
<path d="M28.9371 14.3748H24.0305V15.8017H28.9371V14.3748Z" fill="#009DCF"/>
<path fill-rule="evenodd" clip-rule="evenodd" d="M33.1177 23.2115V25.039H66.4874L33.1177 23.2115Z" fill="#009DCF"/>
<path d="M94.1244 23.9877H91.7212V25.4146H94.1244V23.9877Z" fill="#009DCF"/>
<path d="M90.2691 23.537H91.3205C91.7461 23.537 92.0715 23.8875 92.0715 24.288V25.1141C92.0715 25.5397 91.721 25.8651 91.3205 25.8651H90.2691C89.8435 25.8651 89.5181 25.5146 89.5181 25.1141V24.288C89.5181 23.8624 89.8685 23.537 90.2691 23.537Z" fill="#009DCF"/>
<path fill-rule="evenodd" clip-rule="evenodd" d="M61.3554 9.06766C60.7546 9.66846 60.4542 10.3694 60.4292 11.1955C60.4292 11.4959 60.5043 11.7462 60.7296 11.9465C60.9299 12.1468 61.1802 12.2719 61.4806 12.2719H63.8338C64.2093 12.2719 64.5597 12.0717 64.735 11.7462C64.9352 11.4208 64.9102 11.0203 64.735 10.6948C64.3094 9.9939 63.6085 9.21786 62.4819 8.84235C62.1064 8.71719 61.7059 8.79229 61.4055 9.09269L61.3554 9.06766Z" fill="#009DCF"/>
<path d="M63.2831 13.3483C63.0578 13.3483 62.8575 13.2482 62.7073 13.0479L61.3805 11.2455C61.1552 10.9201 61.2303 10.4945 61.5307 10.2442C61.8561 10.0189 62.2817 10.094 62.5321 10.3944L63.8588 12.1968C64.0841 12.5222 64.009 12.9478 63.7086 13.1981C63.5835 13.2983 63.4333 13.3233 63.2831 13.3233V13.3483Z" fill="#009DCF"/>
<path fill-rule="evenodd" clip-rule="evenodd" d="M2.45142 25.765V28.769H10.2619V28.5437C7.00752 28.2433 3.75316 26.5411 2.45142 25.79V25.765Z" fill="#009DCF"/>
<path fill-rule="evenodd" clip-rule="evenodd" d="M20.2754 16.803C22.7537 16.803 25.0318 17.8294 26.6589 19.4565C28.3111 21.1087 29.3125 23.3618 29.3125 25.8401V29.6201H25.933C26.5087 28.6438 26.8342 27.5173 26.8342 26.3157C26.8342 22.6859 23.9052 19.7569 20.2754 19.7569C16.6455 19.7569 13.7166 22.6859 13.7166 26.3157C13.7166 27.5173 14.042 28.6438 14.6178 29.6201H11.2383V25.8401C11.2383 23.3618 12.2647 21.0837 13.8918 19.4565C15.544 17.8043 17.7971 16.803 20.2754 16.803Z" fill="#009DCF"/>
<path fill-rule="evenodd" clip-rule="evenodd" d="M14.8431 20.9085C16.2199 19.5317 18.1475 18.6555 20.2754 18.6555C22.4032 18.6555 24.3058 19.5067 25.6826 20.9085C27.0595 22.3104 27.9356 24.213 27.9356 26.3408C27.9356 28.4687 27.0845 30.3712 25.6826 31.7731C24.3058 33.1499 22.3782 34.0261 20.2754 34.0261C18.1726 34.0261 16.245 33.175 14.8431 31.7731C13.4663 30.3962 12.5901 28.4687 12.5901 26.3408C12.5901 24.213 13.4412 22.3104 14.8431 20.9336V20.9085ZM20.2754 20.9586C17.3214 20.9586 14.9182 23.3618 14.9182 26.3158C14.9182 29.2697 17.3214 31.673 20.2754 31.673C23.2293 31.673 25.6326 29.2697 25.6326 26.3158C25.6326 23.3618 23.2293 20.9586 20.2754 20.9586Z" fill="#009DCF"/>
<path fill-rule="evenodd" clip-rule="evenodd" d="M20.2754 28.2684C21.3518 28.2684 22.228 27.3922 22.228 26.3158C22.228 25.2393 21.3518 24.3632 20.2754 24.3632C19.1989 24.3632 18.3228 25.2393 18.3228 26.3158C18.3228 27.3922 19.1989 28.2684 20.2754 28.2684Z" fill="#009DCF"/>
<path fill-rule="evenodd" clip-rule="evenodd" d="M77.8525 16.803C80.3309 16.803 82.6089 17.8294 84.2361 19.4565C85.8883 21.1087 86.8896 23.3618 86.8896 25.8401V29.6201H83.5101C84.0859 28.6438 84.4113 27.5173 84.4113 26.3157C84.4113 22.6859 81.4824 19.7569 77.8525 19.7569C74.2227 19.7569 71.2937 22.6859 71.2937 26.3157C71.2937 27.5173 71.6192 28.6438 72.195 29.6201H68.8154V25.8401C68.8154 23.3618 69.8418 21.0837 71.469 19.4565C73.1212 17.8043 75.3742 16.803 77.8525 16.803Z" fill="#009DCF"/>
<path fill-rule="evenodd" clip-rule="evenodd" d="M72.4203 20.9085C73.7971 19.5317 75.7247 18.6555 77.8525 18.6555C79.9804 18.6555 81.8829 19.5067 83.2598 20.9085C84.6366 22.3104 85.5128 24.213 85.5128 26.3408C85.5128 28.4687 84.6616 30.3712 83.2598 31.7731C81.8829 33.1499 79.9553 34.0261 77.8525 34.0261C75.7497 34.0261 73.8221 33.175 72.4203 31.7731C71.0434 30.3962 70.1672 28.4687 70.1672 26.3408C70.1672 24.213 71.0184 22.3104 72.4203 20.9336V20.9085ZM77.8525 20.9586C74.8986 20.9586 72.4954 23.3618 72.4954 26.3158C72.4954 29.2697 74.8986 31.673 77.8525 31.673C80.8065 31.673 83.2097 29.2697 83.2097 26.3158C83.2097 23.3618 80.8065 20.9586 77.8525 20.9586Z" fill="#009DCF"/>
<path fill-rule="evenodd" clip-rule="evenodd" d="M77.8525 28.2684C78.929 28.2684 79.8051 27.3922 79.8051 26.3158C79.8051 25.2393 78.929 24.3632 77.8525 24.3632C76.7761 24.3632 75.8999 25.2393 75.8999 26.3158C75.8999 27.3922 76.7761 28.2684 77.8525 28.2684Z" fill="#009DCF"/>
</g>
<defs>
<clipPath id="clip0_295_125999">
<rect width="94.4014" height="33.3447" fill="white" transform="translate(0.799316 0.656372)"/>
</clipPath>
</defs>
</svg>
