<svg width="96" height="34" viewBox="0 0 96 34" fill="none" xmlns="http://www.w3.org/2000/svg">
<g clip-path="url(#clip0_331_130638)">
<path fill-rule="evenodd" clip-rule="evenodd" d="M27.5851 11.5203C23.8301 11.5203 21.8775 11.3701 19.8247 10.619C23.4295 8.01556 28.987 3.83496 33.8685 3.83496C37.5484 3.83496 42.0795 3.83496 45.6343 3.83496C51.2167 3.83496 55.9731 5.83764 60.5793 8.4161C59.8283 9.1671 59.4027 10.1184 59.3777 11.1698C59.3777 11.295 59.3777 11.4201 59.3777 11.5203H27.5851Z" fill="white"/>
<path d="M11.2133 29.6446C6.48193 29.6446 1.50026 26.4403 1.27495 26.2901L0.799316 25.9647V18.755L0.949518 18.5047C1.19985 18.1041 1.82569 16.8274 1.82569 15.8261L2.10106 8.34105L12.3398 7.66515L12.7153 7.48992C17.747 5.11173 27.1096 0.655762 32.4417 0.655762H47.612C50.3907 0.906097 52.7689 1.33167 54.7215 1.93247C58.7269 3.15911 67.764 8.59139 69.266 9.4926C70.6929 9.66783 78.253 10.569 84.4363 12.1712C91.7712 14.0487 94.2495 16.9776 94.5499 18.2794L95.2007 28.7684L94.2995 28.9687C92.5722 29.3692 91.1703 29.6196 87.3903 29.6196H83.6603V27.4917H87.3903C90.2942 27.4917 91.646 27.3415 92.9477 27.0912L92.4721 18.5547C92.3469 18.2293 90.2942 15.8511 83.9357 14.2239C77.2517 12.5217 68.9155 11.5954 68.8154 11.5704L68.3648 11.4202C68.3648 11.4202 58.1261 5.18683 54.0957 3.93515C52.2682 3.38442 50.0403 2.98388 47.5119 2.75858H32.4417C27.5852 2.75858 18.498 7.06435 13.6165 9.39246L12.6652 9.76797L4.12878 10.3187L3.92851 15.8511C3.92851 17.278 3.22757 18.73 2.90213 19.3308V24.7881C4.22891 25.5641 8.08407 27.5418 11.4386 27.4917H14.4426V29.6196H11.4886C11.4886 29.6196 11.2884 29.6196 11.2133 29.6196V29.6446ZM72.0447 29.6446H26.0832V27.5167H72.0197V29.6446H72.0447Z" fill="white"/>
<path fill-rule="evenodd" clip-rule="evenodd" d="M2.97744 14.7997C2.92738 15.8511 2.90234 16.9526 2.90234 17.6035H4.25415C5.98147 17.6035 8.28455 16.3017 8.35965 14.7997V13.4229H2.92738V14.7997H2.97744Z" fill="white"/>
<path fill-rule="evenodd" clip-rule="evenodd" d="M86.4639 17.3281L88.4916 20.983C89.1675 20.6075 90.1438 20.3572 90.8948 20.3572H90.9449C91.9963 20.3572 93.0477 20.3572 94.1241 20.3572L94.0741 20.1819C93.999 19.8315 92.9726 18.1042 91.9462 17.3281H86.4639V17.3281Z" fill="white"/>
<path d="M50.741 14.374H45.8345V15.8009H50.741V14.374Z" fill="white"/>
<path d="M28.9368 14.374H24.0303V15.8009H28.9368V14.374Z" fill="white"/>
<path fill-rule="evenodd" clip-rule="evenodd" d="M33.1177 23.2109V25.0384H66.4874L33.1177 23.2109Z" fill="white"/>
<path d="M94.1244 23.9871H91.7212V25.414H94.1244V23.9871Z" fill="white"/>
<path d="M90.2691 23.5364H91.3205C91.7461 23.5364 92.0715 23.8868 92.0715 24.2874V25.1135C92.0715 25.5391 91.721 25.8645 91.3205 25.8645H90.2691C89.8435 25.8645 89.5181 25.514 89.5181 25.1135V24.2874C89.5181 23.8618 89.8685 23.5364 90.2691 23.5364Z" fill="white"/>
<path fill-rule="evenodd" clip-rule="evenodd" d="M61.3554 9.06692C60.7546 9.66773 60.4542 10.3687 60.4292 11.1948C60.4292 11.4952 60.5043 11.7455 60.7296 11.9458C60.9299 12.146 61.1802 12.2712 61.4806 12.2712H63.8338C64.2093 12.2712 64.5597 12.0709 64.735 11.7455C64.9352 11.4201 64.9102 11.0195 64.735 10.6941C64.3094 9.99316 63.6085 9.21712 62.4819 8.84162C62.1064 8.71645 61.7059 8.79155 61.4055 9.09196L61.3554 9.06692Z" fill="white"/>
<path d="M63.2831 13.3477C63.0578 13.3477 62.8575 13.2476 62.7073 13.0473L61.3805 11.2449C61.1552 10.9195 61.2303 10.4939 61.5307 10.2435C61.8561 10.0182 62.2817 10.0933 62.5321 10.3938L63.8588 12.1962C64.0841 12.5216 64.009 12.9472 63.7086 13.1975C63.5835 13.2976 63.4333 13.3227 63.2831 13.3227V13.3477Z" fill="white"/>
<path fill-rule="evenodd" clip-rule="evenodd" d="M2.45166 25.7644V28.7684H10.2621V28.5431C7.00776 28.2427 3.7534 26.5404 2.45166 25.7894V25.7644Z" fill="white"/>
<path fill-rule="evenodd" clip-rule="evenodd" d="M20.2754 16.8025C22.7537 16.8025 25.0318 17.8289 26.6589 19.456C28.3111 21.1083 29.3125 23.3613 29.3125 25.8396V29.6197H25.933C26.5087 28.6433 26.8342 27.5168 26.8342 26.3152C26.8342 22.6854 23.9052 19.7564 20.2754 19.7564C16.6455 19.7564 13.7166 22.6854 13.7166 26.3152C13.7166 27.5168 14.042 28.6433 14.6178 29.6197H11.2383V25.8396C11.2383 23.3613 12.2647 21.0832 13.8918 19.456C15.544 17.8038 17.7971 16.8025 20.2754 16.8025V16.8025Z" fill="white"/>
<path fill-rule="evenodd" clip-rule="evenodd" d="M14.8433 20.908C16.2202 19.5312 18.1478 18.655 20.2756 18.655C22.4035 18.655 24.306 19.5062 25.6829 20.908C27.0597 22.3099 27.9359 24.2125 27.9359 26.3403C27.9359 28.4682 27.0847 30.3707 25.6829 31.7726C24.306 33.1494 22.3784 34.0256 20.2756 34.0256C18.1728 34.0256 16.2452 33.1745 14.8433 31.7726C13.4665 30.3958 12.5903 28.4682 12.5903 26.3403C12.5903 24.2125 13.4415 22.3099 14.8433 20.9331V20.908ZM20.2756 20.9581C17.3217 20.9581 14.9184 23.3613 14.9184 26.3153C14.9184 29.2692 17.3217 31.6725 20.2756 31.6725C23.2296 31.6725 25.6328 29.2692 25.6328 26.3153C25.6328 23.3613 23.2296 20.9581 20.2756 20.9581V20.9581Z" fill="white"/>
<path fill-rule="evenodd" clip-rule="evenodd" d="M20.2754 28.2678C21.3518 28.2678 22.228 27.3916 22.228 26.3152C22.228 25.2387 21.3518 24.3625 20.2754 24.3625C19.1989 24.3625 18.3228 25.2387 18.3228 26.3152C18.3228 27.3916 19.1989 28.2678 20.2754 28.2678Z" fill="white"/>
<path fill-rule="evenodd" clip-rule="evenodd" d="M77.8525 16.8025C80.3309 16.8025 82.6089 17.8289 84.2361 19.456C85.8883 21.1083 86.8896 23.3613 86.8896 25.8396V29.6197H83.5101C84.0859 28.6433 84.4113 27.5168 84.4113 26.3152C84.4113 22.6854 81.4824 19.7564 77.8525 19.7564C74.2227 19.7564 71.2937 22.6854 71.2937 26.3152C71.2937 27.5168 71.6192 28.6433 72.195 29.6197H68.8154V25.8396C68.8154 23.3613 69.8418 21.0832 71.469 19.456C73.1212 17.8038 75.3742 16.8025 77.8525 16.8025V16.8025Z" fill="white"/>
<path fill-rule="evenodd" clip-rule="evenodd" d="M72.4205 20.908C73.7973 19.5312 75.7249 18.655 77.8528 18.655C79.9806 18.655 81.8832 19.5062 83.26 20.908C84.6369 22.3099 85.513 24.2125 85.513 26.3403C85.513 28.4682 84.6619 30.3707 83.26 31.7726C81.8832 33.1494 79.9556 34.0256 77.8528 34.0256C75.75 34.0256 73.8224 33.1745 72.4205 31.7726C71.0437 30.3958 70.1675 28.4682 70.1675 26.3403C70.1675 24.2125 71.0186 22.3099 72.4205 20.9331V20.908ZM77.8528 20.9581C74.8988 20.9581 72.4956 23.3613 72.4956 26.3153C72.4956 29.2692 74.8988 31.6725 77.8528 31.6725C80.8067 31.6725 83.2099 29.2692 83.2099 26.3153C83.2099 23.3613 80.8067 20.9581 77.8528 20.9581Z" fill="white"/>
<path fill-rule="evenodd" clip-rule="evenodd" d="M77.8525 28.2678C78.929 28.2678 79.8051 27.3916 79.8051 26.3152C79.8051 25.2387 78.929 24.3625 77.8525 24.3625C76.7761 24.3625 75.8999 25.2387 75.8999 26.3152C75.8999 27.3916 76.7761 28.2678 77.8525 28.2678Z" fill="white"/>
</g>
<defs>
<clipPath id="clip0_331_130638">
<rect width="94.4014" height="33.3447" fill="white" transform="translate(0.799316 0.655762)"/>
</clipPath>
</defs>
</svg>
