<svg width="98" height="40" viewBox="0 0 98 40" fill="none" xmlns="http://www.w3.org/2000/svg">
<g clip-path="url(#clip0_295_126021)">
<path fill-rule="evenodd" clip-rule="evenodd" d="M26.983 3.60229H48.3867C53.6938 4.10297 58.9258 7.05692 63.6822 10.086C63.557 10.1611 63.4318 10.2612 63.3317 10.3613H63.3067C62.5306 11.1624 62.1051 12.1137 62.055 13.1901C62.055 13.2903 62.055 13.3654 62.055 13.4655L13.2646 12.0887C18.3965 7.90806 21.5007 3.60229 26.958 3.60229H26.983Z" fill="#009DCF"/>
<path d="M8.20792 33.3421C3.40148 33.3421 0.74793 30.2129 0.647796 30.0627L0.397461 29.7623V23.4538L0.547662 23.2035C0.797997 22.803 1.42384 21.5262 1.42384 20.5249C1.4739 19.6237 1.49894 18.2218 1.549 16.8199L1.6241 14.2665C1.67417 12.6143 7.70725 6.10559 9.70993 4.20305L9.3845 2.02513L10.3608 1.82486C14.5414 0.923653 22.9026 0.397949 28.5602 0.397949H48.4869C55.9469 1.04882 62.9312 5.45472 69.0895 9.35995C70.1659 10.0359 71.2423 10.7118 72.2937 11.3626C72.7944 11.4127 73.4203 11.4628 74.1462 11.5379C85.7117 12.6143 96.5763 14.2165 97.5776 18.7225V32.6411L96.7765 32.8164C95.2245 33.1668 93.6974 33.3421 90.418 33.3421H87.2137V31.2142H90.418C93.0465 31.2142 94.4484 31.064 95.4748 30.8888V18.9478C94.9741 16.7949 87.7144 14.9424 73.946 13.6657C73.0948 13.5906 72.3689 13.5155 71.8181 13.4654L71.3675 13.3152C70.241 12.6393 69.0895 11.9134 67.9379 11.1624C61.6795 7.20707 55.2209 3.1266 48.3867 2.5258H28.5602C23.4033 2.5258 16.0434 2.9764 11.7627 3.72741L11.988 5.17935L11.3872 5.55486C10.4109 6.20573 4.12746 13.2401 3.70189 14.5169L3.65182 16.9201C3.60175 18.322 3.57672 19.7489 3.52665 20.6C3.52665 22.0269 2.82571 23.4789 2.50028 24.0797V29.0113C3.17618 29.6621 5.22893 31.2893 8.45826 31.2393H9.9102V33.3671H8.50832C8.50832 33.3671 8.30805 33.3671 8.20792 33.3671V33.3421ZM71.5928 33.3421H26.3072V31.2142H71.5928V33.3421Z" fill="#009DCF"/>
<path fill-rule="evenodd" clip-rule="evenodd" d="M64.0578 11.1123C63.457 11.7131 63.1566 12.4141 63.1316 13.2402C63.1316 13.5406 63.2067 13.7909 63.432 13.9912C63.6323 14.1915 63.8826 14.3166 64.183 14.3166H66.5362C66.9117 14.3166 67.2621 14.1164 67.4374 13.7909C67.6376 13.4655 67.6126 13.0649 67.4374 12.7395C67.0118 12.0386 66.3108 11.2625 65.1843 10.887C64.8088 10.7619 64.4083 10.837 64.1079 11.1374L64.0578 11.1123Z" fill="#009DCF"/>
<path d="M65.9852 15.368C65.7599 15.368 65.5596 15.2678 65.4094 15.0676L64.0827 13.2652C63.8574 12.9397 63.9325 12.5141 64.2329 12.2638C64.5583 12.0385 64.9839 12.1136 65.2342 12.414L66.561 14.2164C66.7863 14.5419 66.7112 14.9674 66.4108 15.2178C66.2856 15.3179 66.1354 15.3429 65.9852 15.3429V15.368Z" fill="#009DCF"/>
<path fill-rule="evenodd" clip-rule="evenodd" d="M2.60034 19.0229H3.95215C5.67947 19.0229 7.98255 17.7211 8.05765 16.2191V14.8423H2.62538C2.62538 16.2692 2.62538 17.596 2.60034 19.0229Z" fill="#009DCF"/>
<path fill-rule="evenodd" clip-rule="evenodd" d="M89.1914 17.8213L91.6948 22.3023C92.5209 21.8267 93.7225 21.5263 94.6487 21.5263H94.6988C95.3246 21.5263 95.9755 21.5263 96.6013 21.5263C96.6013 19.7238 96.8266 19.5486 95.1994 18.322L89.1914 17.8213Z" fill="#009DCF"/>
<path d="M49.4381 15.9187H44.5315V17.3456H49.4381V15.9187Z" fill="#009DCF"/>
<path d="M27.4085 15.343H22.502V16.7699H27.4085V15.343Z" fill="#009DCF"/>
<path fill-rule="evenodd" clip-rule="evenodd" d="M31.9648 26.4579V28.2603H65.3345L31.9648 26.4579Z" fill="#009DCF"/>
<path fill-rule="evenodd" clip-rule="evenodd" d="M96.1256 24.0045H92.3705C91.5945 24.7806 91.5444 25.882 91.5444 26.8333H96.1256V24.0045Z" fill="#009DCF"/>
<path fill-rule="evenodd" clip-rule="evenodd" d="M93.2718 30.288C92.9965 29.6371 92.9714 28.8861 92.9714 28.2352H96.1257V30.288H93.2718Z" fill="#009DCF"/>
<path fill-rule="evenodd" clip-rule="evenodd" d="M13.4649 5.80524L3.52661 14.4418L3.70185 12.5643C5.70453 9.83564 10.0604 5.1043 10.8364 4.62866L13.4649 5.83027V5.80524Z" fill="#009DCF"/>
<path fill-rule="evenodd" clip-rule="evenodd" d="M12.2885 37.8731C10.9116 36.6966 9.9103 35.1445 9.43466 33.3671H7.83252V29.1865C7.83252 26.3577 8.98406 23.7793 10.8616 21.9268C12.7391 20.0743 15.2925 18.8977 18.1213 18.8977C20.9501 18.8977 23.5285 20.0493 25.381 21.9268C27.2335 23.7793 28.4101 26.3577 28.4101 29.1865V33.3671H26.8079C26.3323 35.1445 25.3059 36.7216 23.9541 37.8731C22.377 39.1999 20.3493 40.026 18.1213 40.026C15.8933 40.026 13.8656 39.2249 12.2885 37.8731ZM79.4034 25.0309C76.0989 25.0309 73.3953 27.7095 73.3953 31.039C73.3953 34.3684 76.0739 37.047 79.4034 37.047C82.7328 37.047 85.4114 34.3684 85.4114 31.039C85.4114 27.7095 82.7328 25.0309 79.4034 25.0309ZM18.1213 25.0309C14.8169 25.0309 12.1133 27.7095 12.1133 31.039C12.1133 34.3684 14.7918 37.047 18.1213 37.047C21.4508 37.047 24.1293 34.3684 24.1293 31.039C24.1293 27.7095 21.4508 25.0309 18.1213 25.0309ZM79.4034 18.8977C82.2322 18.8977 84.8106 20.0493 86.6631 21.9268C88.5156 23.7793 89.6921 26.3577 89.6921 29.1865V33.3671H88.09C87.6144 35.1445 86.588 36.7216 85.2362 37.8731C83.6591 39.1999 81.6313 40.026 79.4034 40.026C77.1754 40.026 75.1477 39.2249 73.5956 37.8731C72.2187 36.7216 71.2174 35.1445 70.7418 33.3421H69.1396V29.1615C69.1396 26.3327 70.2912 23.7542 72.1687 21.9017C74.0462 20.0493 76.5996 18.8727 79.4284 18.8727L79.4034 18.8977ZM79.4034 28.6858C80.6801 28.6858 81.7315 29.7372 81.7315 31.0139C81.7315 32.2906 80.6801 33.3421 79.4034 33.3421C78.1267 33.3421 77.0752 32.2906 77.0752 31.0139C77.0752 29.7372 78.1267 28.6858 79.4034 28.6858ZM18.1213 28.6858C16.8446 28.6858 15.7932 29.7372 15.7932 31.0139C15.7932 32.2906 16.8446 33.3421 18.1213 33.3421C19.398 33.3421 20.4494 32.2906 20.4494 31.0139C20.4494 29.7372 19.398 28.6858 18.1213 28.6858Z" fill="#009DCF"/>
</g>
<defs>
<clipPath id="clip0_295_126021">
<rect width="97.2052" height="39.603" fill="white" transform="translate(0.397461 0.397949)"/>
</clipPath>
</defs>
</svg>
