<svg width="98" height="40" viewBox="0 0 98 40" fill="none" xmlns="http://www.w3.org/2000/svg">
<g clip-path="url(#clip0_331_130666)">
<path fill-rule="evenodd" clip-rule="evenodd" d="M26.983 3.60181H48.3867C53.6938 4.10248 58.9258 7.05643 63.6822 10.0855C63.557 10.1606 63.4318 10.2607 63.3317 10.3609H63.3067C62.5306 11.1619 62.1051 12.1132 62.055 13.1896C62.055 13.2898 62.055 13.3649 62.055 13.465L13.2646 12.0882C18.3965 7.90757 21.5007 3.60181 26.958 3.60181H26.983Z" fill="white"/>
<path d="M8.20792 33.3416C3.40148 33.3416 0.74793 30.2124 0.647796 30.0622L0.397461 29.7618V23.4533L0.547662 23.203C0.797997 22.8025 1.42384 21.5258 1.42384 20.5244C1.4739 19.6232 1.49894 18.2213 1.549 16.8195L1.6241 14.266C1.67417 12.6138 7.70725 6.1051 9.70993 4.20256L9.3845 2.02464L10.3608 1.82437C14.5414 0.923165 22.9026 0.397461 28.5602 0.397461H48.4869C55.9469 1.04833 62.9312 5.45423 69.0895 9.35946C70.1659 10.0354 71.2423 10.7113 72.2937 11.3621C72.7944 11.4122 73.4203 11.4623 74.1462 11.5374C85.7117 12.6138 96.5763 14.216 97.5776 18.722V32.6406L96.7765 32.8159C95.2245 33.1663 93.6974 33.3416 90.418 33.3416H87.2137V31.2137H90.418C93.0465 31.2137 94.4484 31.0635 95.4748 30.8883V18.9473C94.9741 16.7944 87.7144 14.9419 73.946 13.6652C73.0948 13.5901 72.3689 13.515 71.8181 13.465L71.3675 13.3148C70.241 12.6389 69.0895 11.9129 67.9379 11.1619C61.6795 7.20658 55.2209 3.12612 48.3867 2.52531H28.5602C23.4033 2.52531 16.0434 2.97591 11.7627 3.72692L11.988 5.17886L11.3872 5.55437C10.4109 6.20524 4.12746 13.2397 3.70189 14.5164L3.65182 16.9196C3.60175 18.3215 3.57672 19.7484 3.52665 20.5995C3.52665 22.0264 2.82571 23.4784 2.50028 24.0792V29.0108C3.17618 29.6617 5.22893 31.2888 8.45826 31.2388H9.9102V33.3666H8.50832C8.50832 33.3666 8.30805 33.3666 8.20792 33.3666V33.3416ZM71.5928 33.3416H26.3072V31.2137H71.5928V33.3416Z" fill="white"/>
<path fill-rule="evenodd" clip-rule="evenodd" d="M64.0576 11.1118C63.4568 11.7127 63.1564 12.4136 63.1313 13.2397C63.1313 13.5401 63.2065 13.7904 63.4318 13.9907C63.632 14.191 63.8824 14.3161 64.1828 14.3161H66.5359C66.9114 14.3161 67.2619 14.1159 67.4371 13.7904C67.6374 13.465 67.6124 13.0645 67.4371 12.739C67.0115 12.0381 66.3106 11.262 65.1841 10.8865C64.8086 10.7614 64.4081 10.8365 64.1077 11.1369L64.0576 11.1118Z" fill="white"/>
<path d="M65.9852 15.3675C65.7599 15.3675 65.5596 15.2673 65.4094 15.0671L64.0827 13.2647C63.8574 12.9392 63.9325 12.5137 64.2329 12.2633C64.5583 12.038 64.9839 12.1131 65.2342 12.4135L66.561 14.2159C66.7863 14.5414 66.7112 14.9669 66.4108 15.2173C66.2856 15.3174 66.1354 15.3424 65.9852 15.3424V15.3675Z" fill="white"/>
<path fill-rule="evenodd" clip-rule="evenodd" d="M2.60059 19.0224H3.9524C5.67971 19.0224 7.98279 17.7207 8.05789 16.2186V14.8418H2.62562C2.62562 16.2687 2.62562 17.5955 2.60059 19.0224Z" fill="white"/>
<path fill-rule="evenodd" clip-rule="evenodd" d="M89.1914 17.8208L91.6948 22.3018C92.5209 21.8262 93.7225 21.5258 94.6487 21.5258H94.6988C95.3246 21.5258 95.9755 21.5258 96.6013 21.5258C96.6013 19.7233 96.8266 19.5481 95.1994 18.3215L89.1914 17.8208Z" fill="white"/>
<path d="M49.4383 15.9182H44.5317V17.3451H49.4383V15.9182Z" fill="white"/>
<path d="M27.4085 15.3425H22.502V16.7694H27.4085V15.3425Z" fill="white"/>
<path fill-rule="evenodd" clip-rule="evenodd" d="M31.9648 26.4573V28.2597H65.3345L31.9648 26.4573Z" fill="white"/>
<path fill-rule="evenodd" clip-rule="evenodd" d="M96.1256 24.0042H92.3705C91.5945 24.7802 91.5444 25.8817 91.5444 26.8329H96.1256V24.0042Z" fill="white"/>
<path fill-rule="evenodd" clip-rule="evenodd" d="M93.2721 30.2876C92.9967 29.6367 92.9717 28.8857 92.9717 28.2349H96.1259V30.2876H93.2721Z" fill="white"/>
<path fill-rule="evenodd" clip-rule="evenodd" d="M13.4652 5.80475L3.52686 14.4413L3.70209 12.5638C5.70477 9.83515 10.0606 5.10381 10.8366 4.62817L13.4652 5.82978V5.80475Z" fill="white"/>
<path fill-rule="evenodd" clip-rule="evenodd" d="M12.2885 37.8728C10.9116 36.6962 9.9103 35.1441 9.43466 33.3667H7.83252V29.1861C7.83252 26.3573 8.98406 23.7789 10.8616 21.9264C12.7391 20.0739 15.2925 18.8973 18.1213 18.8973C20.9501 18.8973 23.5285 20.0489 25.381 21.9264C27.2335 23.7789 28.4101 26.3573 28.4101 29.1861V33.3667H26.8079C26.3323 35.1441 25.3059 36.7212 23.9541 37.8728C22.377 39.1995 20.3493 40.0256 18.1213 40.0256C15.8933 40.0256 13.8656 39.2246 12.2885 37.8728ZM79.4034 25.0306C76.0989 25.0306 73.3953 27.7091 73.3953 31.0386C73.3953 34.3681 76.0739 37.0467 79.4034 37.0467C82.7328 37.0467 85.4114 34.3681 85.4114 31.0386C85.4114 27.7091 82.7328 25.0306 79.4034 25.0306ZM18.1213 25.0306C14.8169 25.0306 12.1133 27.7091 12.1133 31.0386C12.1133 34.3681 14.7918 37.0467 18.1213 37.0467C21.4508 37.0467 24.1293 34.3681 24.1293 31.0386C24.1293 27.7091 21.4508 25.0306 18.1213 25.0306ZM79.4034 18.8973C82.2322 18.8973 84.8106 20.0489 86.6631 21.9264C88.5156 23.7789 89.6921 26.3573 89.6921 29.1861V33.3667H88.09C87.6144 35.1441 86.588 36.7212 85.2362 37.8728C83.6591 39.1995 81.6313 40.0256 79.4034 40.0256C77.1754 40.0256 75.1477 39.2246 73.5956 37.8728C72.2187 36.7212 71.2174 35.1441 70.7418 33.3417H69.1396V29.1611C69.1396 26.3323 70.2912 23.7539 72.1687 21.9014C74.0462 20.0489 76.5996 18.8723 79.4284 18.8723L79.4034 18.8973ZM79.4034 28.6855C80.6801 28.6855 81.7315 29.7369 81.7315 31.0136C81.7315 32.2903 80.6801 33.3417 79.4034 33.3417C78.1267 33.3417 77.0752 32.2903 77.0752 31.0136C77.0752 29.7369 78.1267 28.6855 79.4034 28.6855ZM18.1213 28.6855C16.8446 28.6855 15.7932 29.7369 15.7932 31.0136C15.7932 32.2903 16.8446 33.3417 18.1213 33.3417C19.398 33.3417 20.4494 32.2903 20.4494 31.0136C20.4494 29.7369 19.398 28.6855 18.1213 28.6855Z" fill="white"/>
</g>
<defs>
<clipPath id="clip0_331_130666">
<rect width="97.2052" height="39.603" fill="white" transform="translate(0.397461 0.397461)"/>
</clipPath>
</defs>
</svg>
