<svg width="168" height="64" viewBox="0 0 168 64" fill="none" xmlns="http://www.w3.org/2000/svg">
<path d="M35.103 26.5949H30.8357L27.8153 34.8801L24.7396 26.5949H20.5L26.1528 40.2003H29.4779L35.103 26.5949Z" fill="#777E91"/>
<path d="M48.0936 32.8018C48.0936 29.1719 45.2118 26.3178 41.5264 26.3178C37.5639 26.3178 34.4604 29.3658 34.4604 33.3283C34.4604 37.3739 37.6193 40.4774 41.6095 40.4774C44.4359 40.4774 46.7081 39.4244 47.7056 37.6233L44.6576 35.7668C44.1865 36.598 42.9119 37.1522 41.6926 37.1522C39.8361 37.1522 38.5615 36.1824 38.2012 34.3259H47.9827C48.0659 33.7994 48.0936 33.2729 48.0936 32.8018ZM38.2567 31.832C38.6169 30.3634 39.6976 29.4767 41.3324 29.4767C42.7733 29.4767 44.0203 30.4742 44.1865 31.832H38.2567Z" fill="#777E91"/>
<path d="M53.4915 20.8036H49.5845V40.2003H53.4915V20.8036Z" fill="#777E91"/>
<path d="M61.9243 26.3178C57.9064 26.3178 54.8584 29.3658 54.8584 33.4114C54.8584 37.457 57.9064 40.4774 61.9243 40.4774C65.9145 40.4774 68.9903 37.457 68.9903 33.4114C68.9903 29.3658 65.9145 26.3178 61.9243 26.3178ZM61.9243 30.0586C63.7532 30.0586 65.1663 31.4718 65.1663 33.4114C65.1663 35.2957 63.7532 36.7366 61.9243 36.7366C60.0678 36.7366 58.6823 35.2957 58.6823 33.4114C58.6823 31.4718 60.0678 30.0586 61.9243 30.0586Z" fill="#777E91"/>
<path d="M83.3293 36.5703L79.8656 35.0186C79.3392 36.0993 78.2585 36.7366 76.9284 36.7366C74.9888 36.7366 73.6033 35.2957 73.6033 33.4114C73.6033 31.4995 74.9888 30.0586 76.9284 30.0586C78.1199 30.0586 79.1175 30.6405 79.6163 31.5549L82.9137 29.6706C81.833 27.6478 79.5885 26.3178 76.9284 26.3178C72.8551 26.3178 69.7793 29.3658 69.7793 33.4114C69.7793 37.457 72.8551 40.4774 76.9284 40.4774C79.8379 40.4774 82.3041 38.9257 83.3293 36.5703Z" fill="#777E91"/>
<path d="M86.4913 20C85.1889 20 84.1082 21.0807 84.1082 22.3553C84.1082 23.6577 85.1889 24.7383 86.4913 24.7383C87.7936 24.7383 88.8743 23.6577 88.8743 22.3553C88.8743 21.0807 87.7936 20 86.4913 20ZM84.5516 26.5949V40.2003H88.4586V26.5949H84.5516Z" fill="#777E91"/>
<path d="M99.1604 36.5703C98.8556 36.6812 98.3291 36.7643 97.9412 36.7643C96.8051 36.7643 95.8352 35.9607 95.8352 34.6861V30.308H99.1881V26.5949H95.8352V23.0203H91.9282V26.5949H89.4066V30.308H91.9282V34.8801C91.9282 38.3992 94.1727 40.422 97.3593 40.422C98.0797 40.422 98.8556 40.2834 99.3544 40.034L99.1604 36.5703Z" fill="#777E91"/>
<path d="M109.925 26.5949L106.905 34.5475L103.884 26.5949H99.6726L104.91 39.0919L102.388 44.717H106.572L114.137 26.5949H109.925Z" fill="#777E91"/>
<path fill-rule="evenodd" clip-rule="evenodd" d="M125.5 17C124.395 17 123.5 17.8954 123.5 19V39C123.5 43.4183 127.082 47 131.5 47H145.5C149.918 47 153.5 43.4183 153.5 39V25C153.5 20.5817 149.918 17 145.5 17H125.5ZM131.5 28.7888C131.5 25.0758 134.659 22 138.455 22C142.279 22 145.41 25.0758 145.41 28.7888C145.41 30.0635 144.939 31.7815 143.886 33.4718L138.788 41.6738H134.105L138.206 35.1898C138.039 35.2175 137.873 35.2175 137.707 35.2175C134.16 35.2175 131.5 32.5019 131.5 28.7888ZM135.49 28.8166C135.49 30.4514 136.793 31.7538 138.483 31.7538C140.118 31.7538 141.392 30.4514 141.392 28.8166C141.392 27.1817 140.09 25.9071 138.455 25.9071C136.793 25.9071 135.49 27.1817 135.49 28.8166Z" fill="#777E91"/>
</svg>
